<?xml version="1.0" encoding="UTF-8" standalone="no"?>
<!-- Created with Inkscape (http://www.inkscape.org/) -->

<svg
   width="161.05058mm"
   height="140.82648mm"
   viewBox="0 0 161.05058 140.82648"
   version="1.1"
   id="svg1"
   xmlns="http://www.w3.org/2000/svg"
   xmlns:svg="http://www.w3.org/2000/svg">
  <defs
     id="defs1" />
  <g
     id="layer1"
     transform="translate(-29.633324,-74.611287)">
    <path
       id="path2"
       style="fill:#000000;stroke-width:0.264583"
       d="m 122.13087,87.254408 -2.93831,0.440344 -2.93766,0.440946 -2.29054,0.991828 -2.28987,0.992436 -0.4359,0.119597 -0.43587,0.1196 -1.08881,0.419203 -1.08942,0.419804 -3.16995,0.08396 -3.16999,0.08457 0.95859,-0.965856 0.95859,-0.965253 h -0.37463 -0.37463 l -1.00836,0.896392 -1.00839,0.896393 v 0.340674 0.340678 l 0.32677,-0.0749 0.32676,-0.0743 2.24139,0.657799 2.24205,0.658405 2.44176,0.28873 2.44179,0.28873 v -1.005725 -1.005726 l 3.69394,-1.161563 3.6933,-1.161563 3.44567,-0.0453 3.44568,-0.0453 0.97198,0.825114 0.97137,0.82451 0.97198,2.073661 0.97199,2.073662 0.55971,2.256073 0.55973,2.25608 0.36124,0.665049 0.3612,0.66444 0.23677,1.27089 0.23615,1.2703 -0.98156,-0.21686 -0.98223,-0.21745 -1.96057,-0.3751 -1.96058,-0.37572 -0.87177,-0.38597 -0.87118,-0.38599 -3.26762,-0.61853 -3.26762,-0.61853 -4.357,-0.19148 -4.35643,-0.190879 -3.82158,0.366049 -3.82093,0.36604 -2.931943,0.68015 -2.93194,0.68075 -1.52467,0.70612 -1.5253,0.70612 -4.79166,2.56233 -4.7923,2.56172 -0.76266,0.65357 -0.76329,0.65356 v -0.45182 -0.45182 l 0.44291,-0.25913 0.44292,-0.25913 -0.23869,-0.36605 -0.23933,-0.36544 -0.6063,0.21987 -0.60565,0.22048 -0.41037,-0.75384 -0.410367,-0.75384 0.195289,-0.51525 0.195292,-0.51524 h -0.948375 -0.948378 l -0.2272,-0.82089 -0.226563,-0.82088 -1.03964,0.24705 -1.039003,0.24705 v -0.35397 -0.35396 l 1.949725,-1.23707 1.95036,-1.23707 0.0089,-0.30927 0.0096,-0.30927 h -0.492696 -0.493337 l -1.41873,0.82995 -1.418736,0.82935 -0.27124,-0.66867 -0.271238,-0.66867 1.308325,-2.164869 1.308963,-2.164273 1.854631,-1.19116 1.854628,-1.19116 0.21827,-0.23558 0.21763,-0.23557 1.96057,-0.738734 1.96057,-0.738737 3.54716,-0.216247 3.54716,-0.215641 3.11767,0.723032 3.11763,0.723027 -0.74161,0.77559 -0.74159,0.77498 h -0.53929 -0.53991 l -0.25974,0.64148 -0.25978,0.64089 1.92486,-1.30835 1.924823,-1.30834 2.06972,0.66746 2.06905,0.66686 h 1.22919 1.22983 v -0.38176 -0.38235 l -1.37407,-0.64873 -1.37406,-0.648741 h -0.99686 -0.99626 l -0.23933,-0.366651 -0.23997,-0.366647 -1.42001,-0.208393 -1.420013,-0.207791 -1.96057,-0.70612 -1.96057,-0.706117 -3.51589,0.247052 -3.51589,0.246446 -2.36583,0.770752 -2.36584,0.771356 -3.049354,1.345184 -3.049993,1.34519 -1.207489,0.8082 -1.207487,0.8076 -0.571833,1.305933 -0.571834,1.30533 -0.296764,1.421899 -0.29613,1.42191 0.706496,2.01325 0.706495,2.01265 1.368955,0.79069 1.369591,0.79008 0.77606,0.002 0.77606,0.001 0.166571,0.51525 0.166574,0.51584 0.238689,1.31378 0.239329,1.31379 -3.066587,3.42851 -3.066585,3.42792 -1.887818,2.49588 -1.887815,2.49528 -1.167283,1.97943 -1.167279,1.97882 -0.83286,2.29051 -0.832864,2.29112 v 2.52367 2.52427 l 0.69437,0.93807 0.69437,0.93746 0.503547,-0.16852 0.506095,-0.16913 -0.168484,-0.78042 -0.169127,-0.78042 -0.0217,-2.68011 -0.02236,-2.68072 0.811797,-1.64902 0.8118,-1.64962 0.08105,-0.7025 0.08106,-0.7025 1.179404,-1.35908 1.178772,-1.35969 2.157777,-2.88609 2.15714,-2.88669 1.407888,-1.46177 1.407245,-1.46117 0.926039,-1.01297 0.926039,-1.01237 1.252793,-1.05102 1.25217,-1.05163 1.52467,-1.07217 1.52468,-1.07216 5.52943,-2.71394 5.52879,-2.71394 1.87761,-0.447 1.877583,-0.44698 3.48527,-0.59317 3.48587,-0.59256 4.06858,0.0544 4.06857,0.0544 1.59552,0.33645 1.59486,0.33585 3.26762,0.69705 3.26762,0.69646 1.74295,0.51343 1.74233,0.51283 3.92116,1.12472 3.92114,1.12411 5.28308,2.42641 5.28308,2.42703 2.77622,1.93413 2.7762,1.93412 0.87244,1.04499 0.87241,1.04438 1.17493,1.74809 1.1756,1.74747 -2.74685,1.22862 -2.74749,1.22801 -2.78514,0.52067 -2.78511,0.52068 -0.13914,0.0864 -0.13914,0.0858 0.57118,0.86499 0.57057,0.86498 h 0.33063 0.3312 v -0.57444 -0.57384 l 2.59559,-0.035 2.59561,-0.0344 2.50812,-0.83418 2.50881,-0.83478 h 0.081 0.0811 l 0.88008,-1.41163 0.87945,-1.41164 -0.61907,-0.2247 -0.61905,-0.2247 v -0.67894 -0.67833 l -2.21011,-2.41495 -2.21012,-2.41493 -2.69132,-1.92749 -2.69131,-1.92748 -5.88173,-2.62938 -5.88173,-2.62997 -1.49085,-0.71217 -1.49023,-0.71276 -0.0938,-0.61854 -0.0938,-0.61853 -0.73714,-2.474139 -0.73711,-2.47413 -0.57824,-1.237073 -0.57755,-1.23707 -0.55143,-1.76862 -0.55079,-1.768619 -1.85973,-1.705801 -1.86035,-1.706406 -0.63569,-0.336449 -0.63565,-0.33645 -1.4602,-0.06282 z m -26.361133,5.89238 v 0.20598 0.20658 h 0.21762 0.21827 v -0.20658 -0.20598 h -0.21827 z m -1.30705,3.29865 v 0.20658 0.20598 h 0.21762 0.21828 v -0.20598 -0.20658 h -0.21828 z m -1.74295,1.250363 -1.52467,0.6886 -1.52468,0.688 v 0.32195 0.32256 l 1.52468,-0.85169 1.52467,-0.8517 v -0.15886 z m -4.80633,4.372019 -1.16346,0.8221 -1.16409,0.82209 -0.17231,0.49048 -0.17296,0.49048 0.36314,-0.002 0.36314,-0.002 1.30705,-0.99182 1.30705,-0.99184 -0.33378,-0.31893 z m -14.363499,0.97552 h 0.21763 0.218268 v 0.20598 0.20598 h -0.218268 -0.21763 v -0.20598 z m 54.513752,9.40486 -3.83883,0.0519 -3.83881,0.0514 -3.18975,0.15463 -3.18975,0.15524 -0.25913,0.24524 -0.25973,0.24524 h -2.02377 -2.02377 l -3.24079,0.76893 -3.24083,0.76834 -2.6141,0.53518 -2.614093,0.53457 -0.41355,0.34611 -0.41421,0.34611 h -0.75116 -0.75119 l -3.40929,1.286 -3.40994,1.2866 -1.24769,0.60404 -1.24834,0.60464 0.49653,0.46994 0.49652,0.46994 0.77989,-0.46088 0.78053,-0.46088 0.76648,0.40592 0.76649,0.40591 0.28145,-0.26638 0.28145,-0.26638 -0.56864,-0.33222 -0.56801,-0.33283 0.72883,-0.26456 0.72948,-0.26518 0.40717,0.23799 0.40718,0.2386 -0.11935,-0.54605 -0.11998,-0.54665 2.05439,0.0997 2.05439,0.0997 -0.27827,-0.6868 -0.27824,-0.68618 0.78436,0.2845 0.78436,0.2851 0.55585,-0.7194 0.55589,-0.71941 h 1.78507 1.785073 v -0.26698 -0.26699 l 1.38681,-0.26275 1.38746,-0.26276 0.30889,0.47296 0.30889,0.47296 0.4742,-0.83841 0.47354,-0.8384 1.64277,0.0846 1.64211,0.084 0.23611,-0.32135 0.23615,-0.32135 2.79853,-0.20054 2.79854,-0.20114 0.33506,0.49893 0.33507,0.49894 0.007,-0.65659 0.008,-0.65659 1.85146,0.0441 1.85144,0.0435 1.19853,-0.28632 1.19794,-0.28571 v 0.33947 0.34008 l 1.7289,-0.36786 1.72824,-0.36786 1.64852,0.19752 1.64721,0.19812 1.85205,0.26034 1.85149,0.26095 v 0.62216 0.62216 l 0.5584,-0.43914 0.55971,-0.43914 0.59353,0.34672 0.59353,0.34732 -1.26172,0.63726 -1.26111,0.63726 -1.52531,1.36875 -1.52467,1.36935 -0.12254,0.81908 -0.12319,0.81847 -0.0976,2.98878 -0.0977,2.98877 0.43845,0.17276 0.43845,0.17215 0.43528,-0.10269 0.4359,-0.10329 0.0549,-0.48081 0.0542,-0.48142 0.0543,-0.60525 0.0549,-0.60585 0.65354,0.23739 0.65353,0.23739 v -0.68679 -0.6874 l -0.43591,0.2549 -0.43586,0.25491 v -0.80518 -0.80458 l 0.68094,-0.24766 0.68097,-0.24705 -0.28847,-0.44336 -0.29039,-0.44276 0.91137,-0.22531 0.9101,-0.2253 -0.23935,-0.36544 -0.23805,-0.36545 h 1.11494 1.11495 v -0.54786 -0.54786 l 1.85147,0.0465 1.85205,0.0465 0.33446,-0.42645 0.33504,-0.42645 0.44931,0.72122 0.44929,0.72182 h 0.66628 0.66691 l -0.30761,-1.34035 -0.30697,-1.33976 -0.49014,-0.30322 -0.48953,-0.30263 -0.5597,-0.007 -0.5584,-0.006 -1.51066,-1.42976 -1.51062,-1.42915 v 0.39867 0.39806 h -0.87118 -0.87115 v -0.38659 -0.38719 l -2.06971,-0.26155 -2.06969,-0.26094 -1.17112,-0.42222 z m -3.53887,1.26788 v 0.43612 0.43671 h 0.4359 0.43525 v -0.18181 -0.18182 l -0.43525,-0.2549 z m 2.6141,0.46088 v 0.41195 0.41256 h 0.1921 0.19211 l 0.26931,-0.41256 0.26932,-0.41195 h -0.46142 z m -6.53524,0.27484 v 0.54967 0.54968 l 0.29039,-0.27484 0.29036,-0.27484 -0.29036,-0.27484 z m -3.05,0.13711 v 0.41256 0.41256 h 0.41038 0.40973 l 0.26932,-0.41256 0.26931,-0.41256 h -0.67904 z m 12.19934,0 v 0.20658 0.20598 h 0.21762 0.21828 v -0.20598 -0.20658 h -0.21828 z m -3.48525,0.3431 -1.74295,1.30653 -1.74295,1.30653 v 0.37752 0.37753 h 0.34016 0.33954 l 1.40279,-1.40741 1.40341,-1.40801 v -0.27604 z m -14.76173,0.0695 -0.26932,0.41256 -0.26931,0.41195 h 0.46142 0.46142 v -0.41195 -0.41256 h -0.19211 z m 11.71173,0 v 0.41256 0.41195 h 0.19211 0.1921 l 0.26932,-0.41195 0.26931,-0.41256 h -0.46142 z m 7.84231,0.27484 v 0.54967 0.55028 l 0.29039,-0.27484 0.29037,-0.27544 -0.29037,-0.27483 z m -17.47858,0.13772 0.26931,0.41195 0.26932,0.41256 h 0.1921 0.19211 v -0.41256 -0.41195 h -0.46142 z m 3.15273,0 -0.26932,0.41195 -0.26932,0.41256 h 0.46142 0.46142 v -0.41256 -0.41195 h -0.1921 z m 11.27584,0 v 0.41195 0.41256 h 0.4359 0.4359 v -0.41256 -0.41195 h -0.4359 z m -20.91277,0.41195 v 0.41256 0.41255 h 0.4359 0.4359 v -0.41255 -0.41256 h -0.4359 z m 12.19933,0 v 0.20658 0.20598 h 0.21762 0.21828 v -0.20598 -0.20658 h -0.21828 z m 2.6141,0.27544 -0.2904,0.27484 -0.29036,0.27483 h 0.58076 0.58075 l -0.29036,-0.27483 z m -12.19933,0.13712 v 0.41255 0.41196 h 0.4359 0.4359 v -0.41196 -0.41255 h -0.4359 z m 3.10169,0 -0.26932,0.41255 -0.26932,0.41196 h 0.46142 0.46142 v -0.41196 -0.41255 h -0.1921 z m 14.32583,0.27484 -0.29039,0.27483 -0.29036,0.27484 h 0.58075 0.58075 l -0.29036,-0.27484 z m -23.96277,0.13771 v 0.41196 0.41256 h 0.4359 0.43591 v -0.41256 -0.41196 h -0.43591 z m 11.71239,0 0.26932,0.41196 0.26932,0.41256 h 0.1921 0.1921 v -0.41256 -0.41196 h -0.46142 z m 14.42858,0 v 0.41196 0.41256 h 0.4359 0.4359 v -0.41256 -0.41196 h -0.4359 z m -23.09097,0.27485 -0.29039,0.27483 -0.29036,0.27484 h 0.58075 0.58076 l -0.29037,-0.27484 z m 11.76343,0 -0.29039,0.27483 -0.29036,0.27484 h 0.58075 0.58075 l -0.29035,-0.27484 z m -9.58523,0.0888 v 0.43672 0.43671 h 0.4359 0.4359 v -0.18181 -0.18182 l -0.4359,-0.2549 z m 12.25102,0.0483 -0.26932,0.41256 -0.26931,0.41255 h 0.46142 0.46142 v -0.41255 -0.41256 h -0.1921 z m -21.400363,0.36423 v 0.6427 0.6427 h 0.1921 0.1921 l 0.25083,-0.38357 0.250823,-0.38416 -0.442923,-0.25914 z m 14.377533,0 v 0.43612 0.43672 h 0.4359 0.4359 v -0.18182 -0.18181 l -0.4359,-0.2549 z m -2.5624,0.0483 -0.26932,0.41255 -0.26932,0.41196 h 0.67905 0.6797 v -0.41196 -0.41255 h -0.41038 z m 14.32583,0 v 0.41255 0.41196 h 0.4359 0.4359 v -0.41196 -0.41255 h -0.4359 z m -23.52686,0.41255 v 0.41196 0.41256 h 0.4359 0.4359 v -0.41256 -0.41196 h -0.4359 z m 2.61409,0 v 0.41196 0.41256 h 0.4359 0.4359 v -0.41256 -0.41196 h -0.4359 z m 11.76343,0 v 0.41196 0.41256 h 0.4359 0.4359 v -0.41256 -0.41196 h -0.4359 z m 11.76344,0 v 0.41196 0.41256 h 0.4359 0.4359 v -0.41256 -0.41196 h -0.4359 z m -6.53525,0.36364 v 0.43672 0.43671 h 0.43591 0.4359 v -0.18181 -0.18182 l -0.4359,-0.2549 z m -14.86446,0.0483 0.26931,0.41256 0.26932,0.41255 h 0.4359 0.43525 l -0.26932,-0.41255 -0.26931,-0.41256 h -0.43525 z m 12.25037,0 v 0.41256 0.41255 h 0.1921 0.1921 l 0.26932,-0.41255 0.26932,-0.41256 h -0.46142 z m -18.284,0.26155 -0.26866,0.2543 -0.2687,0.2543 0.29167,0.44638 0.29166,0.44638 0.44355,-0.25913 0.44355,-0.25974 -0.46652,-0.44094 z m 26.06757,0.0683 -0.23102,0.8378 -0.23167,0.8372 -0.61076,-0.22168 -0.61013,-0.22169 v 0.25008 0.25067 l 0.76201,0.79008 0.76266,0.79069 0.38039,0.0344 0.37973,0.0338 -0.54886,-0.62579 -0.54952,-0.62638 0.74224,-0.77619 0.74224,-0.77619 -0.49331,-0.28812 z m -14.31881,0.0344 v 0.43612 0.43672 h 0.4359 0.4359 v -0.18182 -0.18181 l -0.4359,-0.2549 z m -14.864473,0.0483 0.26932,0.41255 0.26931,0.41196 h 0.19211 0.1921 v -0.41196 -0.41255 h -0.46142 z m 11.763433,0 0.26932,0.41255 0.26932,0.41196 h 0.1921 0.19211 v -0.41196 -0.41255 h -0.46142 z m 14.86447,0 v 0.41255 0.41196 h 0.19211 0.1921 l 0.26932,-0.41196 0.26931,-0.41255 h -0.46142 z m -20.91277,0.27483 v 0.54968 0.55028 l 0.2904,-0.27484 0.29101,-0.27544 -0.29101,-0.27484 z m 11.27649,0.13772 0.26932,0.41196 0.26932,0.41255 h 0.1921 0.19211 v -0.41255 -0.41196 h -0.46143 z m 5.71514,0.27484 v 0.54967 0.54968 l 0.29039,-0.27484 0.29102,-0.27484 -0.29102,-0.27483 z m -26.627903,0.13712 0.26931,0.41255 0.26932,0.41256 h 0.1921 0.19211 v -0.41256 -0.41255 h -0.46142 z m 11.763433,0 0.26932,0.41255 0.26931,0.41256 h 0.19211 0.1921 v -0.41256 -0.41255 h -0.46142 z m 3.15273,0 -0.26932,0.41255 -0.26931,0.41256 h 0.46142 0.46142 v -0.41256 -0.41255 h -0.19211 z m 9.09764,0 v 0.20658 0.20597 h 0.21828 0.21762 v -0.20597 -0.20658 h -0.21762 z m 4.35705,0 v 0.41255 0.41256 h 0.67904 0.6797 l -0.26932,-0.41256 -0.26932,-0.41255 h -0.41038 z m -25.269823,0.27544 -0.29039,0.27484 -0.29036,0.27483 h 0.58075 0.58141 l -0.29102,-0.27483 z m 40.518513,0 v 0.54967 0.54968 l 0.2904,-0.27484 0.29101,-0.27484 -0.29101,-0.27483 z m 2.6141,0 v 0.54967 0.54968 l 0.29038,-0.27484 0.29102,-0.27484 -0.29102,-0.27483 z m -40.466823,0.13711 -0.26931,0.41256 -0.26932,0.41196 h 0.46142 0.46142 v -0.41196 -0.41256 h -0.1921 z m 11.224803,0 0.26932,0.41256 0.26932,0.41196 h 0.1921 0.1921 v -0.41196 -0.41256 h -0.46142 z m 31.8561,0.27484 v 0.54968 0.55027 l 0.29041,-0.27483 0.29103,-0.27544 -0.29103,-0.27484 z m -40.95374,0.13772 v 0.41196 0.41255 h 0.1921 0.19211 l 0.26931,-0.41255 0.26932,-0.41196 h -0.46142 z m 2.6141,0 v 0.41196 0.41255 h 0.43524 0.4359 v -0.41255 -0.41196 h -0.4359 z m 9.14933,0 v 0.41196 0.41255 h 0.43525 0.4359 v -0.41255 -0.41196 h -0.4359 z m 2.61409,0 v 0.41196 0.41255 h 0.43525 0.4359 v -0.41255 -0.41196 h -0.4359 z m 11.71175,0 0.26931,0.41196 0.26932,0.41255 h 0.1921 0.19211 v -0.41255 -0.41196 h -0.46142 z m -34.803363,0.27484 -0.29038,0.27484 -0.29039,0.27483 h 0.58077 0.5814 l -0.29101,-0.27483 z m 28.755053,0.0888 v 0.43672 0.43672 h 0.43591 0.4359 v -0.18181 -0.18182 l -0.4359,-0.2549 z m 14.4382,0.035 -0.27379,0.4192 -0.2738,0.4192 h 0.67905 0.6797 v -0.18181 -0.18182 l -0.40591,-0.23739 z m -41.014403,0.0133 v 0.41255 0.41256 h 0.43524 0.43591 v -0.41256 -0.41255 h -0.43591 z m 11.763433,0 v 0.41255 0.41256 h 0.43525 0.4359 v -0.41256 -0.41255 h -0.4359 z m 11.76343,0 v 0.41255 0.41256 h 0.43525 0.4359 v -0.41256 -0.41255 h -0.4359 z m -20.477523,0.27544 -0.29039,0.27483 -0.29036,0.27484 h 0.58075 0.58141 l -0.29102,-0.27484 z m 11.763443,0 -0.2904,0.27483 -0.29036,0.27484 h 0.58076 0.5814 l -0.29101,-0.27484 z m -23.902143,0.12382 -0.27379,0.41921 -0.27379,0.4186 h 0.6797 0.67905 v -0.18182 -0.18182 l -0.4059,-0.23678 z m 26.080993,0.0133 v 0.41256 0.41195 h 0.43524 0.4359 v -0.41195 -0.41256 h -0.4359 z m 11.71173,0 0.26932,0.41256 0.26931,0.41195 h 0.19211 0.1921 v -0.41195 -0.41256 h -0.46142 z m -18.24698,0.36363 v 0.6427 0.6433 h 0.19211 0.1921 l 0.25079,-0.38417 0.2502,-0.38356 -0.44293,-0.25914 z m 34.41852,0 v 0.43672 0.43672 h 0.4359 0.4359 v -0.18181 -0.18182 l -0.4359,-0.25491 z m -51.410153,0.0489 v 0.41195 0.41256 h 0.43526 0.43589 v -0.41256 -0.41195 h -0.43589 z m 11.763443,0 v 0.41195 0.41256 h 0.1921 0.19211 l 0.26931,-0.41256 0.26932,-0.41195 h -0.46142 z m 2.1265,0 0.26932,0.41195 0.26932,0.41256 h 0.41038 0.40972 v -0.41256 -0.41195 h -0.67904 z m 12.25103,0 v 0.41195 0.41256 h 0.1921 0.1921 l 0.26932,-0.41256 0.26932,-0.41195 h -0.46142 z m 2.61409,0 v 0.41195 0.41256 h 0.43525 0.4359 v -0.41256 -0.41195 h -0.4359 z m -25.705703,0.27484 -0.29039,0.27483 -0.29038,0.27484 h 0.58077 0.5814 l -0.29102,-0.27484 z m 2.61408,0 -0.29039,0.27483 -0.29036,0.27484 h 0.58075 0.58141 l -0.29101,-0.27484 z m 14.002283,0.12383 -0.27379,0.4192 -0.27379,0.4192 h 0.6797 0.67904 v -0.18182 -0.18181 l -0.40525,-0.23739 z m -25.861433,0.0133 -1.908884,1.95889 -1.908238,1.9589 v 3.09267 3.09267 l 0.649057,2.02413 0.648417,2.02413 v 0.75928 0.75927 h -0.784357 -0.783717 l -0.443555,0.4192 -0.442913,0.4192 -3.238264,0.0936 -3.238903,0.093 -0.980286,-0.33403 -0.980287,-0.33464 v 0.75384 0.75324 l 0.762657,0.4349 0.762658,0.43491 2.831725,-0.0538 2.831727,-0.0544 2.538788,-0.76049 2.538155,-0.76048 2.03141,1.92265 2.03205,1.92325 -0.53992,0.81787 -0.53993,0.81847 v 0.94472 0.94471 l 0.67842,0.91693 0.67905,0.91754 -0.26868,0.41134 -0.26869,0.41195 h -0.8201 -0.82009 l -0.26997,-0.41376 -0.27059,-0.41437 -1.07985,0.25672 -1.07985,0.25671 -3.794777,3.44302 -3.794781,3.44301 -1.928664,0.94109 -1.928024,0.94049 h -3.735428 -3.736062 l -5.082042,-0.36303 -5.082048,-0.36303 -1.222806,1.15734 -1.222801,1.15733 0.570555,0.18001 0.569918,0.18 0.485039,-0.45846 0.4844,-0.45907 h 3.125938 3.125938 l 1.296202,0.24524 1.296196,0.24524 0.70203,1.50767 0.702027,1.50708 1.120693,3.66288 1.12133,3.66288 -0.27124,0.2543 -0.271238,0.2543 -2.030775,0.0127 -2.031412,0.0121 -2.722592,0.0906 -2.723234,0.0912 v 0.54726 0.54726 l 1.727628,3.7698 1.726991,3.76919 1.79719,2.6934 1.797193,2.6928 1.377249,0.0459 1.376614,0.0459 0.956672,-0.0725 0.956673,-0.0719 0.855199,0.43309 0.855835,0.4331 0.312084,3.61395 0.312721,3.61336 1.688696,1.53123 1.688697,1.53063 1.761451,0.4488 1.761453,0.4488 2.563677,-0.0876 2.56304,-0.0876 1.011555,0.65236 1.01092,0.65297 1.74295,1.57894 1.74231,1.57896 1.52531,1.77346 1.52468,1.77284 1.8993,0.6113 1.89867,0.61127 0.61459,-0.48323 0.6146,-0.48261 -0.2655,-1.33916 -0.26486,-1.33854 -0.35803,-2.32192 v -0.48203 -0.48262 l 3.15913,-1.0462 3.15848,-1.04558 2.519663,-0.51948 2.51963,-0.51947 0.43143,0.40833 0.43142,0.40833 0.17233,0.84565 0.17231,0.84626 0.46844,1.59767 0.46907,1.59767 0.003,1.13439 0.003,1.13378 0.56801,1.11144 -1.86359,0.28208 -1.86356,0.28209 -0.77798,0.39382 -0.77734,0.39385 0.22592,0.81665 0.22531,0.81665 0.5814,0.45667 0.58141,0.45662 2.09458,0.30868 2.09461,0.30806 0.4359,-0.1957 0.4378,-0.19632 0.74289,-0.60282 0.74224,-0.60283 -0.24445,-1.65386 c -0.32425,-1.10771 -1.20239,-5.79876 -1.20239,-5.79876 l -0.28399,-1.15612 2.4469,0.23738 c 1.00208,1.29379 2.19502,2.44271 3.32568,3.63509 l 2.67664,2.82268 1.8578,1.20989 1.85846,1.21047 h 1.28473 1.28408 l 0.54184,-0.61853 0.54246,-0.61854 2.88789,-0.0303 2.88726,-0.0303 2.17822,-0.33825 2.17881,-0.33886 4.52491,-1.48656 4.5249,-1.48714 h 0.71799 0.7186 l 0.74737,-1.19779 0.74735,-1.19721 v -1.03653 -1.03712 l 0.26421,-0.65176 0.26485,-0.65236 h 0.47418 0.47416 l 1.17113,1.0619 1.17112,1.06189 2.12014,-1.02324 2.1201,-1.02384 1.27961,-1.27572 1.2796,-1.27513 -0.044,-1.95889 -0.49332,-2.46991 -0.30633,-1.6001 -0.307,-1.60009 -0.64648,-1.23707 -0.64651,-1.23707 -1.52913,-1.27452 -1.5285,-1.27452 -1.57829,-0.77196 -1.57893,-0.77256 -1.82081,-1.14888 -1.82145,-1.14888 h -0.24779 -0.24829 v 0.41256 0.41195 h 0.39378 0.39378 l 3.47123,3.28114 3.4712,3.28113 -0.15637,1.74446 -0.15634,1.74506 -0.33253,0.3147 -0.3325,0.31471 -1.50935,-1.11385 -1.50939,-1.11384 -1.21322,-1.17788 -1.21325,-1.17727 v -0.95317 -0.95377 l -1.12387,-2.1987 -1.12325,-2.19869 -0.72818,-1.44184 -0.72819,-1.44184 -1.12263,-1.0323 -1.12196,-1.0323 -0.53355,-2.57743 -0.53288,-2.57682 h -0.23105 -0.2304 l 0.27507,2.7834 0.27444,2.78341 0.17744,0.82813 0.17739,0.82814 -0.37525,0.57504 -0.37591,0.57505 -3.6365,-0.98881 -3.6359,-0.98881 -0.87177,-0.87042 -0.87118,-0.86981 -2.07288,-1.03955 -2.07291,-1.03895 -0.86794,-1.04438 -0.86798,-1.04438 v -0.29296 -0.29235 l -1.30705,-1.40922 -1.30705,-1.40922 v -0.58954 -0.58954 l 0.76266,-0.37088 0.76204,-0.37027 3.14509,-0.23739 3.14508,-0.23738 1.86546,-0.78284 1.8655,-0.78283 0.598,-0.68558 0.59736,-0.68559 h -0.73522 -0.73521 l -0.9522,0.48022 -0.95157,0.4796 0.54246,-0.62216 0.54184,-0.62216 1.85403,-0.76531 1.85461,-0.76532 1.82081,-1.15431 1.82144,-1.15372 h 0.27059 0.26997 l -1.14942,1.42614 -1.14938,1.42613 1.10537,0.26276 1.10471,0.26275 2.09207,-0.96766 2.0914,-0.96707 0.43588,-0.3135 0.43591,-0.31409 1.2509,-0.88915 1.25089,-0.88974 0.60056,-1.3609 0.60055,-1.36029 v -1.06855 -1.06854 l 0.47992,0.28028 0.4793,0.28087 -0.26612,1.26063 -0.26678,1.26123 -1.34025,1.97641 -1.33958,1.97641 -1.50236,1.24854 -1.50234,1.24855 h -1.66381 -1.66446 l -1.26172,1.13076 -1.26173,1.13076 0.98156,0.1353 0.98091,0.1347 0.4742,0.83901 0.47481,0.83841 2.84001,1.21894 2.84072,1.21895 4.20002,1.35002 4.19941,1.35003 0.43588,0.11718 0.4359,0.11779 0.87373,-0.0489 0.87368,-0.0489 0.55076,-1.17666 0.55015,-1.17727 1.52786,-1.02868 1.52789,-1.02868 -1.9625,-1.71183 -1.96185,-1.71185 -0.98986,-0.0489 -0.98986,-0.0483 -0.60373,0.0797 -0.60375,0.0797 0.33761,-0.75263 0.3376,-0.75263 0.65162,-1.64963 0.65162,-1.64902 -0.6899,-1.54634 -0.69054,-1.54633 -0.34912,0.002 -0.34845,0.002 -0.11552,1.88158 -0.11486,1.88157 -0.87434,1.62124 -0.87373,1.62124 h -0.64458 -0.64461 v -0.42525 -0.42524 l 0.66951,-0.24282 0.66947,-0.24343 0.56801,-1.29022 0.56801,-1.29023 -0.13597,-1.61701 -0.13592,-1.617 -0.42378,-0.40108 -0.42439,-0.40169 -0.27697,1.19358 -0.27763,1.19358 -0.44614,1.11868 -0.44675,1.11867 -1.26492,1.25217 -1.26426,1.25277 h -1.17303 -1.17239 l 0.4863,-0.46027 0.48631,-0.45967 1.00774,-0.47598 1.00775,-0.47538 0.94263,-1.59043 0.9426,-1.59043 0.27636,-1.63815 0.27699,-1.63876 0.60309,0.47357 0.60312,0.47356 4.93972,0.0954 4.93974,0.0954 3.04996,-0.98821 3.04999,-0.9882 0.65354,-0.81666 0.65352,-0.81605 0.9701,-1.04136 0.9707,-1.04197 0.27697,-1.39774 0.27699,-1.39714 0.38611,-0.22591 0.38674,-0.22591 v -1.18875 -1.18814 l -0.43778,-0.25611 -0.43717,-0.25551 0.2808,-1.10901 0.2808,-1.10841 -0.3593,0.31591 -0.35867,0.31591 -0.5565,-1.25216 -0.55655,-1.25278 0.24191,-0.71276 0.24185,-0.71337 -0.43013,0.57142 -0.43016,0.57142 -0.46717,-0.82632 -0.46718,-0.82633 0.29872,-0.28208 0.29802,-0.28209 -0.6631,0.24041 -0.66309,0.24101 -1.27069,-1.20264 -1.27003,-1.20203 -0.55843,0.20235 -0.55843,0.20296 -0.76266,-0.2996 -0.76263,-0.29961 -1.30705,-0.0725 -1.30706,-0.0719 -2.89492,0.50497 -2.89491,0.50498 -2.22414,1.06673 -2.22417,1.06673 v 0.1655 0.16551 l -0.26804,0.66021 -0.26739,0.65961 1.16726,-0.4198 1.16729,-0.42041 h 0.21508 0.21574 l -0.26937,0.41255 -0.26932,0.41256 h 0.50802 0.50803 l -0.23871,-0.58833 -0.23865,-0.58833 0.62796,-0.4935 0.62735,-0.4929 v 0.66928 0.66867 h 0.46527 0.46464 l -0.29681,-0.88492 -0.29676,-0.88491 0.8999,0.22288 0.90049,0.22229 0.14488,-0.41195 0.14486,-0.41196 3.59759,-0.096 3.59694,-0.0954 0.22529,0.34552 0.22593,0.3455 h 1.06513 1.06519 l 2.02758,1.81272 2.02694,1.81271 0.10404,1.58923 0.104,1.58922 h 0.0785 0.0791 l 0.14555,0.72122 0.14613,0.72182 h -0.42632 -0.42633 l 0.26038,0.77619 0.25974,0.77679 -1.42891,1.7638 -1.42898,1.76439 -2.35432,1.19961 -2.355,1.19902 -1.02175,-0.24282 -1.02179,-0.24283 v 0.43733 0.43732 l -2.28732,-0.23859 -2.28735,-0.238 -2.62239,-0.18845 -2.62176,-0.18786 -2.60644,-0.97431 -2.6058,-0.97371 0.10853,-0.47236 0.10909,-0.47175 h -0.6318 -0.63119 l 0.90369,1.60311 0.90434,1.60312 -1.10537,2.21138 -1.10476,2.21078 -2.18583,1.95889 -2.18588,1.95829 h -0.27507 -0.27442 l 2.63962,-3.61094 2.63963,-3.61093 v -0.51283 -0.51222 h -0.44163 -0.44101 l -2.1731,2.06701 -2.17247,2.06762 v -0.56417 -0.56356 l 0.98029,-1.02989 0.98028,-1.02988 1.41176,-1.5397 1.41105,-1.53908 -0.44609,-0.79008 -0.44675,-0.78948 -0.74734,0.0326 -0.74673,0.0326 0.53803,0.20597 0.538,0.20598 -0.65159,1.19297 -0.65164,1.19237 -1.10281,-0.39685 -1.10283,-0.39625 0.0696,0.51162 0.0702,0.51162 -0.0517,0.91391 -0.0517,0.9133 -1.19918,1.16097 -1.19853,1.16035 -2.27459,1.70218 -2.27521,1.70157 -0.55653,0.18786 -0.55589,0.18785 0.30445,0.31048 0.30441,0.31047 1.4379,-0.45907 1.4385,-0.45846 -1.08939,0.84323 -1.0888,0.84385 -4.0303,1.8405 -4.03025,1.8405 -2.39648,0.69827 -2.39585,0.69826 0.009,0.43069 0.009,0.43067 0.84181,1.75473 0.84115,1.75533 1.1073,1.37419 1.1073,1.37358 -0.28847,0.27302 -0.28846,0.27303 h -0.99179 -0.99179 l -0.63245,0.85411 -0.63248,0.85471 -2.68683,0.79129 -2.68748,0.79189 -0.95284,0.16672 -0.95287,0.16671 -2.94086,1.11747 -2.94086,1.11747 v 0.3443 0.3443 l 0.39123,0.22893 0.39123,0.22833 2.33135,-0.65901 2.33204,-0.659 1.58211,-0.61672 1.58212,-0.61673 2.53685,0.5376 2.53753,0.53699 0.6733,0.69706 0.67329,0.69705 0.87118,0.98459 0.87115,0.98397 1.05688,0.69465 1.05684,0.69464 -0.79837,1.40318 -0.79841,1.40318 0.28336,0.69827 0.28272,0.69887 0.47419,-0.27786 0.4742,-0.27725 -0.10211,0.76652 -0.10277,0.76713 0.24507,0.61853 0.24508,0.61853 0.53866,3.20442 0.53864,3.20442 -0.27059,0.25672 -0.27063,0.25611 -0.19592,-0.57444 -0.19528,-0.57444 -0.27699,-1.95889 -0.27697,-1.95829 h -0.4193 -0.4193 l 0.29102,3.30408 0.29101,3.30409 -0.78309,2.77795 -0.78308,2.77796 -1.01283,2.19509 -1.01283,2.19505 -0.55459,-0.31227 -0.55399,-0.31288 -2.17882,-1.51919 -2.17819,-1.51915 -1.43661,-1.50767 -1.4366,-1.50768 -1.06963,-1.49194 -1.07027,-1.49198 0.4359,-0.49712 0.43524,-0.49652 -0.86987,-0.74478 -0.86987,-0.74538 v 0.39383 0.39383 l 0.52269,0.49532 0.52268,0.4947 h -0.4608 -0.46076 l -1.54193,-2.37145 -1.54127,-2.37085 -1.73465,-3.29865 -1.73399,-3.29924 -0.6548,-1.44305 -0.65418,-1.44305 -1.03326,-2.44514 -1.032603,-2.44454 -2.5439,-4.77129 -2.54388,-4.7719 -0.44995,-0.51524 -0.45058,-0.51525 h 0.46718 0.46717 l 0.34846,0.55331 0.34846,0.55329 2.33648,1.50828 2.33648,1.50829 h 0.50288 0.503543 l 1.62235,1.04377 1.6223,1.04317 1.51,0.0538 1.51066,0.0538 0.12698,0.60646 0.12766,0.60645 1.42894,-2.08876 1.4283,-2.08937 0.50038,-1.36693 0.49971,-1.36694 0.79263,-1.23707 0.79266,-1.23707 v -0.51584 -0.51525 l -0.32676,0.008 -0.32677,0.008 -0.98858,2.05312 -0.98859,2.05373 h -0.47802 -0.47799 l -2.22544,-1.54634 -2.22542,-1.54633 -0.22912,-0.0187 -0.22913,-0.0187 -1.74294,-0.87223 -1.7423,-0.87223 -2.832373,-2.34306 -2.83173,-2.34246 0.11999,-0.40531 0.11934,-0.4047 -0.43015,0.25127 -0.43015,0.25189 -2.30328,-2.19447 -2.30394,-2.19386 -1.67784,-1.69493 -1.67721,-1.69493 0.29102,-0.868 0.29103,-0.868 h 0.41547 0.41547 l 2.71366,1.97822 2.71365,1.97762 2.61409,1.59768 2.6141,1.59828 1.09772,0.69585 1.097733,0.69585 1.08112,0.31893 1.08047,0.31894 4.13878,1.95587 4.13942,1.95648 1.85143,0.29356 1.85143,0.29296 v -0.38296 -0.38357 l -1.85143,-0.50618 -1.85143,-0.50619 -5.2282,-2.40889 -5.22819,-2.4083 -6.535243,-4.41552 -6.53524,-4.41611 -0.99178,-0.43431 -0.99177,-0.4343 0.15444,-0.44457 0.15381,-0.44397 1.59999,-0.12805 1.59998,-0.12806 v -0.52974 -0.52974 l -0.91136,-0.78102 -0.91199,-0.78102 -0.41484,-0.7333 -0.41484,-0.7333 0.6331,-0.85532 0.63311,-0.85532 0.97645,-0.64692 0.97582,-0.64753 -0.99241,1.27029 -0.99177,1.27029 0.28209,1.06431 0.28208,1.06372 h 0.86286 0.86285 v -0.3129 -0.31289 l 0.85584,-0.50558 0.8552,-0.50558 -0.2489,0.6131 -0.2489,0.6137 0.30059,1.13257 0.29996,1.13257 0.55715,-0.72122 0.55716,-0.72122 h 0.30443 0.3044 l -0.27377,0.41981 -0.27443,0.4198 0.93754,1.4358 0.93751,1.4358 h 0.64905 0.64908 l -0.68417,-0.64813 -0.6848,-0.64753 v -0.38296 -0.38296 h 0.45632 0.45695 l 0.58588,1.31861 0.58589,1.31862 -0.21955,0.54121 -0.22018,0.54182 0.6682,-0.24222 0.6682,-0.24282 1.0141,0.50558 1.01411,0.50618 0.21828,0.29477 0.21762,0.29538 1.017933,0.30081 1.01731,0.30081 -0.50802,-0.89941 -0.50864,-0.89881 0.25337,-0.2398 0.25272,-0.2392 v 0.48081 0.48082 h 0.4825 0.48249 l -0.25082,-0.61854 -0.25082,-0.61853 h 0.36888 0.36826 l 0.54246,0.61853 0.54249,0.61854 h 0.6465 0.64715 l -0.32614,0.72182 -0.32611,0.72182 -0.19403,1.05949 -0.194,1.05948 0.50416,1.77406 0.50485,1.77405 1.37021,1.18452 1.37025,1.18452 0.45057,-0.084 0.44992,-0.0846 1.00453,0.52612 1.00456,0.52551 0.52076,-0.20054 0.52014,-0.20054 -0.76266,-0.0326 -0.76201,-0.0326 v -0.38417 -0.38477 l 0.85328,-0.25612 0.85392,-0.25672 1.32493,-1.58317 1.32426,-1.58319 v -0.19692 -0.19751 l -1.74229,0.0435 -1.74295,0.0435 v 0.52249 0.52189 h -0.65352 -0.65353 v 0.41256 0.41255 h -1.25343 -1.25408 l -0.40655,-0.51584 -0.40715,-0.51525 0.0817,-1.34035 0.081,-1.33976 0.0951,-0.10329 0.0951,-0.10329 0.13593,-1.75232 0.13596,-1.75231 h -0.65927 -0.65862 l 0.23422,-0.57806 0.23422,-0.57807 -0.88457,-0.21866 -0.8852,-0.21926 0.33316,-0.51041 0.33314,-0.50981 -0.71352,0.25913 -0.71286,0.25853 -1.3543,-1.07821 -1.35492,-1.07881 0.26869,-1.4811 0.26805,-1.4817 0.23742,-1.13378 0.23805,-1.13438 h 0.56419 0.56415 l 0.2489,-1.13378 0.24827,-1.13378 1.19984,-0.51585 1.19984,-0.51524 h 0.78498 0.78436 v -0.46632 -0.46631 l 1.55721,0.23919 1.55788,0.2392 1.27897,0.53639 1.2796,0.53578 -0.2036,0.50256 -0.20423,0.50256 0.41996,0.24584 0.41992,0.24524 0.26104,-0.64451 0.26167,-0.64511 h 0.60693 0.60693 v -0.41196 -0.41255 h -0.92477 -0.92476 l 0.54248,-0.61853 0.54249,-0.61854 -1.4698,-0.0586 -1.46916,-0.0586 -1.4519,-0.11296 -1.45193,-0.11295 -0.25465,-0.24101 -0.25399,-0.24041 h 1.18706 1.18768 l -0.26036,-0.39927 -0.26105,-0.39927 -1.61656,0.0405 -1.61659,0.0411 -1.08942,0.92357 -1.08943,0.92417 -1.17111,0.26095 -1.17108,0.26034 -0.26743,-0.40893 -0.26742,-0.40954 -1.04727,0.64995 -1.047313,0.64934 -0.50164,-0.29357 -0.50099,-0.29296 0.58781,-0.34369 0.58778,-0.3437 -1.30388,0.11658 -1.30385,0.11719 -0.62607,-0.44337 -0.62608,-0.44336 0.28592,0.72182 0.28526,0.72122 h -0.85775 -0.85775 v 0.39806 0.39806 l -0.89732,0.45484 -0.89795,0.45424 0.69758,-1.27694 0.69819,-1.27693 -0.26167,-0.40048 -0.26102,-0.39987 h -0.36189 -0.36186 l -1.6823,1.45935 -1.68168,1.45875 -1.89292,1.26788 -1.89356,1.26787 0.17614,-0.76833 0.17679,-0.76834 0.47291,0.0888 0.47227,0.0888 0.17678,-1.42915 0.17615,-1.42855 h -0.34846 -0.34846 v 0.41195 0.41256 h -0.65353 -0.65352 l -0.0153,0.51524 -0.016,0.51585 -1.12324,1.23707 -1.12261,1.23707 0.3089,-0.82511 0.30953,-0.82452 0.20103,-0.46269 0.20168,-0.46269 -1.11495,0.20114 -1.11431,0.20175 v -0.38115 -0.38175 l 0.63948,-0.80035 0.64012,-0.80095 0.0134,-0.24041 0.014,-0.24041 h -0.65352 -0.65353 v 0.3437 0.3437 h -0.43589 -0.4359 v -0.39625 -0.39625 l 0.81244,-0.73813 0.81244,-0.73753 0.49461,-0.90062 0.49461,-0.90062 -0.006,-0.33645 -0.006,-0.33645 -0.39441,0.58954 -0.39378,0.58954 -0.57949,0.0888 -0.57949,0.0888 -0.628,0.14618 -0.62735,0.14677 -0.15828,-0.68074 -0.15828,-0.68075 1.00391,-1.0323 1.00326,-1.03291 0.51886,-0.6137 0.51822,-0.6137 -0.24379,-0.23074 -0.24316,-0.23075 -0.6331,0.59921 -0.63246,0.5986 h -0.40463 -0.40462 v -0.389 -0.3884 l 0.88136,-0.5841 0.88073,-0.58471 -0.26868,-0.77921 -0.26869,-0.77921 0.47036,0.61854 0.47036,0.61853 0.0581,-0.41255 0.0581,-0.41256 -0.067,-0.35216 -0.0664,-0.35275 0.50419,-0.57505 0.50418,-0.57564 h -0.97199 z m 37.564873,0 v 0.41256 0.41255 h 0.43525 0.4359 v -0.41255 -0.41256 h -0.4359 z m 2.66514,0 -0.26932,0.41256 -0.26932,0.41255 h 0.6797 0.67904 v -0.41255 -0.41256 h -0.40972 z m 11.71241,0 v 0.41256 0.41255 h 0.43525 0.4359 v -0.41255 -0.41256 h -0.4359 z m -35.290323,0.27544 v 0.54967 0.54968 l 0.2904,-0.27483 0.29036,-0.27485 -0.29036,-0.27483 z m -14.32648,0.13712 -0.26932,0.41255 -0.26932,0.41196 h 0.46142 0.46142 v -0.41196 -0.41255 h -0.1921 z m 11.71238,0 v 0.20598 0.20657 h 0.21763 0.21762 v -0.20657 -0.20598 h -0.21762 z m 14.377543,0 v 0.41255 0.41196 h 0.43524 0.4359 v -0.41196 -0.41255 h -0.4359 z m 2.66514,0 -0.26932,0.41255 -0.26932,0.41196 h 0.4359 0.4359 l 0.26931,-0.41196 0.26932,-0.41255 h -0.4359 z m 11.71238,0 v 0.41255 0.41196 h 0.43525 0.4359 v -0.41196 -0.41255 h -0.4359 z m -37.904403,0.27484 -0.29038,0.27483 -0.29102,0.27484 h 0.5814 0.58077 l -0.29038,-0.27484 z m 14.812793,0 -0.2904,0.27483 -0.29036,0.27484 h 0.58076 0.5814 l -0.29101,-0.27484 z m 25.70571,0 v 0.54967 0.55028 l 0.29039,-0.27484 0.29036,-0.27544 -0.29036,-0.27484 z m -11.76344,0.0888 v 0.43672 0.43672 h 0.43525 0.4359 v -0.18182 -0.18181 l -0.4359,-0.25491 z m 2.6141,0 v 0.43672 0.43672 h 0.43525 0.4359 v -0.18182 -0.18181 l -0.4359,-0.25491 z m -29.242653,0.0489 0.26932,0.41196 0.26932,0.41256 h 0.19211 0.1921 v -0.41256 -0.41196 h -0.46143 z m 3.15274,0 -0.26932,0.41196 -0.26933,0.41256 h 0.46143 0.46142 v -0.41256 -0.41196 h -0.1921 z m 11.276483,0 v 0.41196 0.41256 h 0.43591 0.43524 v -0.41256 -0.41196 h -0.43524 z m 5.2282,0.24706 v 0.42645 0.42584 l 0.29039,0.27484 0.29036,0.27484 0.22531,-0.21262 0.2253,-0.21323 -0.5157,-0.48806 z m 23.96278,0.0278 v 0.54967 0.54968 l 0.29039,-0.27484 0.29037,-0.27484 -0.29037,-0.27483 z m -37.904413,0.0888 v 0.43672 0.43672 h 0.43524 0.43591 v -0.18182 -0.18181 l -0.43591,-0.2549 z m 2.66513,0.0483 -0.26931,0.41255 -0.26932,0.41256 h 0.46142 0.46142 v -0.41256 -0.41255 h -0.1921 z m 8.610713,0 0.26932,0.41255 0.26931,0.41256 h 0.19211 0.1921 v -0.41256 -0.41255 h -0.46142 z m 14.42922,0 v 0.41255 0.41256 h 0.4359 0.43524 v -0.41256 -0.41255 h -0.43524 z m -31.805053,0.36423 -0.43526,0.2543 -0.4359,0.2549 v 0.41256 0.41256 l 0.4359,-0.25491 0.43526,-0.2549 v -0.41256 z m 26.140953,0 -0.43524,0.2543 -0.4359,0.2549 v 0.3884 0.38779 h 0.4359 0.43524 v -0.64269 z m -29.139253,0.0483 -0.26932,0.41256 -0.26933,0.41196 h 0.46143 0.46142 v -0.41196 -0.41256 h -0.1921 z m 13.89058,0 v 0.41256 0.41196 h 0.435903 0.43525 v -0.41196 -0.41256 h -0.43525 z m 12.250383,0 -0.26932,0.41256 -0.26932,0.41196 h 0.6797 0.67904 v -0.41196 -0.41256 h -0.40972 z m 11.22479,0 0.26932,0.41256 0.26932,0.41196 h 0.1921 0.1921 v -0.41196 -0.41256 h -0.46142 z m 12.80566,0.20598 -0.79393,1.54634 -0.79332,1.54633 h -0.32803 -0.32804 l 0.0108,0.72183 0.0108,0.72182 -0.2706,1.64902 -0.27059,1.64963 0.84177,-2.37931 0.84181,-2.37869 0.72502,-1.04801 0.72564,-1.048 -0.18573,-0.49048 z m -45.430173,0.20658 v 0.41196 0.41255 h 0.4359 0.43526 v -0.41255 -0.41196 h -0.43526 z m 11.763443,0 v 0.41196 0.41255 h 0.4359 0.43524 v -0.41255 -0.41196 h -0.43524 z m 14.37752,0 v 0.41196 0.41255 h 0.4359 0.43525 v -0.41255 -0.41196 h -0.43525 z m 9.58524,0 v 0.20598 0.20598 h 0.21762 0.21763 v -0.20598 -0.20598 h -0.21763 z m -32.621963,0.32618 -0.57183,0.21685 -0.57184,0.21625 0.83478,0.0326 0.8354,0.0326 -0.26357,-0.24886 z m 2.12396,0.0858 v 0.41255 0.41256 h 0.43589 0.43525 v -0.41256 -0.41255 h -0.43525 z m 9.149333,0 v 0.41255 0.41256 h 0.4359 0.43525 v -0.41256 -0.41255 h -0.43525 z m 2.6141,0 v 0.41255 0.41256 h 0.4359 0.43525 v -0.41256 -0.41255 h -0.43525 z m 3.10104,0 -0.26932,0.41255 -0.26932,0.41256 h 0.46142 0.46142 v -0.41256 -0.41255 h -0.1921 z m 8.61069,0 0.26932,0.41255 0.26932,0.41256 h 0.1921 0.19211 v -0.41256 -0.41255 h -0.46142 z m 2.6658,0 v 0.41255 0.41256 h 0.4359 0.43524 v -0.41256 -0.41255 h -0.43524 z m 11.76345,0 v 0.41255 0.41256 h 0.4359 0.43525 v -0.41256 -0.41255 h -0.43525 z m -47.053753,0.36423 v 0.43672 0.43611 h 0.43589 0.43526 v -0.18181 -0.18182 l -0.43526,-0.2549 z m -2.6141,0.0483 v 0.41256 0.41195 h 0.1921 0.1921 l 0.26932,-0.41195 0.26933,-0.41256 h -0.46143 z m 14.37753,0 v 0.41256 0.41195 h 0.4359 0.43525 v -0.41195 -0.41256 h -0.43525 z m 14.377533,0 v 0.41256 0.41195 h 0.67905 0.67969 l -0.26932,-0.41195 -0.26931,-0.41256 h -0.41038 z m 11.76343,0 v 0.41256 0.41195 h 0.4359 0.43525 v -0.41195 -0.41256 h -0.43525 z m -23.09096,0.27484 -0.29039,0.27484 -0.29102,0.27483 h 0.58141 0.58075 l -0.29036,-0.27483 z m 42.56205,0.0103 0.31084,0.47598 0.31078,0.47598 h 0.19208 0.19212 v -0.18182 -0.18181 l -0.5029,-0.29417 z m -52.147293,0.0785 v 0.43672 0.43672 h 0.4359 0.43525 v -0.18182 -0.18181 l -0.43525,-0.25494 z m 28.755063,0 v 0.6433 0.64269 h 0.4359 0.43524 v -0.38839 -0.38779 l -0.43524,-0.25491 z m -31.369163,0.0489 v 0.41195 0.41256 h 0.19211 0.1921 l 0.26932,-0.41256 0.26932,-0.41195 h -0.46142 z m 14.377533,0 v 0.41195 0.41256 h 0.43591 0.43524 v -0.41256 -0.41195 h -0.43524 z m 3.10104,0 -0.26931,0.41195 -0.26932,0.41256 h 0.46142 0.46142 v -0.41256 -0.41195 h -0.1921 z m 8.6624,0 v 0.41195 0.41256 h 0.43589 0.43525 v -0.41256 -0.41195 h -0.43525 z m 2.61409,0 v 0.41195 0.41256 h 0.4359 0.43525 v -0.41256 -0.41195 h -0.43525 z m 9.14934,0 v 0.41195 0.41256 h 0.1921 0.19211 l 0.26931,-0.41256 0.26932,-0.41195 h -0.46142 z m 5.71515,0 -0.26932,0.41195 -0.26931,0.41256 h 0.46142 0.46142 v -0.41256 -0.41195 h -0.19211 z m -35.777263,0.36363 v 0.64269 0.6427 h 0.4359 0.43525 v -0.38779 -0.3878 l -0.43525,-0.2549 z m 11.763443,0 v 0.43672 0.43671 h 0.4359 0.43525 v -0.18181 -0.18182 l -0.43525,-0.2549 z m -14.377533,0.0483 v 0.41256 0.41255 h 0.1921 0.1921 l 0.26932,-0.41255 0.26932,-0.41256 h -0.46142 z m 28.755053,0 v 0.41256 0.41255 h 0.43591 0.43524 v -0.41255 -0.41256 h -0.43524 z m -37.904393,0.27544 v 0.54967 0.54968 l 0.29038,-0.27484 0.29039,-0.27484 -0.29039,-0.27483 z m 28.755063,0 v 0.54967 0.54968 l 0.29039,-0.27484 0.29036,-0.27484 -0.29036,-0.27483 z m -2.6141,0.13712 v 0.41255 0.41196 h 0.19211 0.1921 l 0.26932,-0.41196 0.26932,-0.41255 h -0.46142 z m 14.37753,0 v 0.41255 0.41196 h 0.4359 0.43525 v -0.41196 -0.41255 h -0.43525 z m -35.290303,0.27483 v 0.54968 0.55028 l 0.29039,-0.27484 0.29038,-0.27544 -0.29038,-0.27484 z m 28.755063,0.0888 v 0.43672 0.43672 h 0.4359 0.43525 v -0.18182 -0.18181 l -0.43525,-0.25491 z m 11.76345,0 v 0.43672 0.43672 h 0.4359 0.43525 v -0.18182 -0.18181 l -0.43525,-0.25491 z m -43.132613,0.0489 v 0.20598 0.20598 h 0.21763 0.21827 v -0.20598 -0.20598 h -0.21827 z m 14.377543,0 v 0.41196 0.41256 h 0.1921 0.1921 l 0.26932,-0.41256 0.26932,-0.41196 h -0.46142 z m 14.37752,0 v 0.41196 0.41256 h 0.4359 0.43525 v -0.41256 -0.41196 h -0.43525 z m 28.63638,0.20598 0.27506,1.03109 0.27445,1.03049 0.27824,2.73629 0.27829,2.73569 -0.28403,1.43338 -0.28462,1.43398 -1.90888,1.91238 -1.90888,1.91299 h -0.69697 -0.69625 v 0.41256 0.41195 h -0.61716 -0.61778 l -0.25403,-0.51524 -0.25397,-0.51525 -0.25146,0.50679 -0.25081,0.50679 -1.38299,-1.2268 -1.38237,-1.2262 -0.32676,-0.002 -0.32676,-0.002 v 0.22591 0.22591 l 1.08942,0.95559 1.08877,0.95558 v 0.49592 0.49591 l 0.83478,-0.25067 0.83478,-0.25068 0.28017,0.42887 0.28017,0.42886 h 0.86543 0.86539 l 1.00264,-0.94894 1.0026,-0.94894 0.50292,0.15886 0.50229,0.15826 v -0.47055 -0.47115 l -0.4359,0.25491 -0.43527,0.2549 v -0.43672 -0.43672 h 0.18957 0.18889 l 1.16729,0.41981 1.16792,0.4198 -0.23614,-0.58168 -0.23614,-0.5823 0.86093,-1.64721 0.86159,-1.64721 0.0511,-2.82991 0.051,-2.82931 -0.59735,-1.64963 -0.59671,-1.64962 -0.40656,-0.41196 z m -39.96391,0.0689 -0.29039,0.27484 -0.29101,0.27484 h 0.5814 0.58076 l -0.29036,-0.27484 z m 4.7923,0 v 0.54968 0.54967 l 0.29039,-0.27484 0.29036,-0.27483 -0.29036,-0.27484 z m 11.76343,0 v 0.54968 0.54967 l 0.29039,-0.27484 0.29036,-0.27483 -0.29036,-0.27484 z m -28.264923,0.0513 -0.57183,0.21685 -0.57184,0.21625 0.83478,0.0326 0.8354,0.0326 -0.26357,-0.24887 z m 2.12396,0.0858 v 0.41256 0.41255 h 0.1921 0.1921 l 0.26932,-0.41255 0.26932,-0.41256 h -0.46142 z m 11.763433,0 v 0.41256 0.41255 h 0.1921 0.19211 l 0.26931,-0.41255 0.26932,-0.41256 h -0.46142 z m -23.526873,0.27544 -0.29039,0.27484 -0.29038,0.27483 h 0.58077 0.58077 l -0.29039,-0.27483 z m 55.390003,0.0785 -0.87114,0.44155 -0.87115,0.44094 -0.27124,0.80941 -0.27125,0.81002 0.52462,0.9429 0.52524,0.9435 0.4793,0.30323 0.47929,0.30262 0.40143,0.007 0.40145,0.006 0.79711,-0.68256 0.79647,-0.68197 v -1.16397 -1.16338 l -1.06005,-0.6578 z m -53.211803,0.0103 v 0.43672 0.43612 h 0.4359 0.43589 v -0.18182 -0.18181 l -0.43589,-0.25491 z m 11.76343,0.0483 v 0.41255 0.41196 h 0.4359 0.4359 v -0.41196 -0.41255 h -0.4359 z m 3.101693,0 -0.26932,0.41255 -0.26931,0.41196 h 0.46142 0.46142 v -0.41196 -0.41255 h -0.1921 z m 11.27584,0 v 0.41255 0.41196 h 0.65353 0.65352 v -0.41196 -0.41255 h -0.65352 z m 11.71239,0 0.26932,0.41255 0.26932,0.41196 h 0.16593 0.16658 l 0.26932,-0.41196 0.26931,-0.41255 h -0.70521 z m 3.15273,0 -0.26931,0.41255 -0.26932,0.41196 h 0.46142 0.46142 v -0.41196 -0.41255 h -0.1921 z m 13.83891,0 0.26932,0.41255 0.26932,0.41196 h 0.19212 0.19208 v -0.41196 -0.41255 h -0.4614 z m -51.795003,0.27483 -0.29038,0.27484 -0.29039,0.27484 h 0.58077 0.58077 l -0.29038,-0.27484 z m 2.17821,0.0888 v 0.43671 0.43673 h 0.43589 0.4359 v -0.18182 -0.18181 l -0.4359,-0.25491 z m 11.712383,0.0489 0.26932,0.41196 0.26932,0.41256 h 0.1921 0.19211 v -0.41256 -0.41196 h -0.46142 z m 11.81447,0 v 0.41196 0.41256 h 0.43591 0.43589 v -0.41256 -0.41196 h -0.43589 z m 3.10169,0 -0.26931,0.41196 -0.26932,0.41256 h 0.46142 0.46142 v -0.41256 -0.41196 h -0.1921 z m 11.22481,0 0.26931,0.41196 0.26932,0.41256 h 0.19211 0.1921 v -0.41256 -0.41196 h -0.46142 z m 3.15274,0 -0.26931,0.41196 -0.26932,0.41256 h 0.46142 0.46142 v -0.41256 -0.41196 h -0.1921 z m -50.094803,0.39867 -0.27379,0.4192 -0.2738,0.4192 h 0.67905 0.6797 v -0.18181 -0.18182 l -0.4059,-0.23738 z m 11.65175,0.0133 0.26932,0.41255 0.26932,0.41256 h 0.1921 0.19211 v -0.41256 -0.41255 h -0.46142 z m 11.763443,0 0.26932,0.41255 0.26932,0.41256 h 0.1921 0.1921 v -0.41256 -0.41255 h -0.46142 z m 3.15273,0 -0.26931,0.41255 -0.26932,0.41256 h 0.46142 0.46142 v -0.41256 -0.41255 h -0.1921 z m 11.2248,0 0.26931,0.41255 0.26932,0.41256 h 0.19211 0.1921 v -0.41256 -0.41255 h -0.46142 z m -20.434753,0.26638 -0.86733,0.88068 -0.8667,0.88069 v 0.22349 0.22289 h 0.21828 0.21762 l 0.90752,-0.85894 0.907553,-0.85894 -0.258473,-0.24463 z m -12.19041,0.009 v 0.54967 0.54967 l 0.29038,-0.27483 0.29103,-0.27484 -0.29103,-0.27484 z m 35.726193,0 -0.29039,0.27483 -0.29036,0.27484 h 0.58075 0.58076 l -0.29036,-0.27484 z m -21.34866,0.0888 v 0.43672 0.43612 h 0.4359 0.4359 v -0.18182 -0.18182 l -0.4359,-0.2549 z m -16.991633,0.0483 v 0.41256 0.41196 h 0.1921 0.1921 l 0.26933,-0.41196 0.26932,-0.41256 h -0.46142 z m 11.76343,0 v 0.41256 0.41196 h 0.4359 0.4359 v -0.41196 -0.41256 h -0.4359 z m 14.326503,0 0.26931,0.41256 0.26932,0.41196 h 0.1921 0.19211 v -0.41196 -0.41256 h -0.46142 z m 3.15272,0 -0.26932,0.41256 -0.26931,0.41196 h 0.46142 0.46142 v -0.41196 -0.41256 h -0.19211 z m 11.27584,0 v 0.41256 0.41196 h 0.4359 0.4359 v -0.41196 -0.41256 h -0.4359 z m -35.290293,0.27484 v 0.54968 0.55027 l 0.29038,-0.27483 0.29102,-0.27544 -0.29102,-0.27484 z m 38.340293,0 -0.2904,0.27484 -0.29036,0.27484 h 0.58076 0.58075 l -0.29036,-0.27484 z m -23.96277,0.13772 v 0.41196 0.41255 h 0.4359 0.4359 v -0.41255 -0.41196 h -0.4359 z m 11.76343,0 v 0.41196 0.41255 h 0.4359 0.4359 v -0.41255 -0.41196 h -0.4359 z m 14.37753,0 v 0.41196 0.41255 h 0.43592 0.4359 v -0.41255 -0.41196 h -0.4359 z m -11.32753,0.27484 -0.29039,0.27483 -0.29036,0.27484 h 0.58075 0.58075 l -0.29036,-0.27484 z m -26.086723,0.0513 -0.57183,0.21685 -0.57183,0.21624 0.83541,0.0326 0.83476,0.0326 -0.26291,-0.24886 z m 2.12395,0.0858 v 0.41255 0.41256 h 0.43591 0.43589 v -0.41256 -0.41255 h -0.43589 z m 11.763443,0 v 0.41255 0.41256 h 0.4359 0.4359 v -0.41256 -0.41255 h -0.4359 z m 2.6141,0 v 0.41255 0.41256 h 0.4359 0.4359 v -0.41256 -0.41255 h -0.4359 z m 11.76342,0 v 0.41255 0.41256 h 0.43591 0.4359 v -0.41256 -0.41255 h -0.4359 z m 3.1017,0 -0.26932,0.41255 -0.26932,0.41256 h 0.46142 0.46142 v -0.41256 -0.41255 h -0.1921 z m -38.391993,0.27544 v 0.54967 0.54967 l 0.29039,-0.27483 0.29102,-0.27484 -0.29102,-0.27484 z m 14.377533,0.0888 v 0.43672 0.43611 h 0.4359 0.4359 v -0.18181 -0.18182 l -0.4359,-0.2549 z m 11.76343,0.0483 v 0.41256 0.41195 h 0.4359 0.4359 v -0.41195 -0.41256 h -0.4359 z m -20.912763,0.27484 v 0.54967 0.55028 l 0.29038,-0.27484 0.29102,-0.27544 -0.29102,-0.27483 z m 23.962763,0 -0.2904,0.27484 -0.29036,0.27483 h 0.58076 0.58075 l -0.29036,-0.27483 z m -26.086723,0.052 -0.57183,0.21624 -0.57184,0.21685 0.83542,0.0326 0.83477,0.032 -0.26294,-0.24886 z m 37.904393,0 -0.57183,0.21624 -0.57184,0.21685 0.83544,0.0326 0.83474,0.032 -0.26291,-0.24886 z m -32.730443,0.0368 -0.44293,0.25913 -0.44289,0.25914 0.25079,0.38356 0.25082,0.38417 h 0.1921 0.19211 v -0.6427 z m 11.327533,0 v 0.43672 0.43672 h 0.4359 0.4359 v -0.18181 -0.18182 l -0.4359,-0.2549 z m 14.37753,0 v 0.6433 0.6427 h 0.1921 0.1921 l 0.25083,-0.38417 0.25082,-0.38356 -0.44293,-0.25914 z m 11.76345,0 v 0.43672 0.43672 h 0.4359 0.4359 v -0.18181 -0.18182 l -0.4359,-0.2549 z m -28.80612,0.0489 0.26932,0.41195 0.26932,0.41256 h 0.1921 0.19211 v -0.41256 -0.41195 h -0.46142 z m 13.99332,0 v 0.41195 0.41256 h 0.65353 0.65352 v -0.41256 -0.41195 h -0.65352 z m 12.19869,0 v 0.41195 0.41256 h 0.4359 0.4359 v -0.41256 -0.41195 h -0.4359 z m -32.676213,0.36363 v 0.43672 0.43672 h 0.4359 0.4359 v -0.18182 -0.18181 l -0.4359,-0.25491 z m 26.140963,0 v 0.43672 0.43672 h 0.4359 0.43591 v -0.18182 -0.18181 l -0.43591,-0.25491 z m -11.38752,0.035 -0.41293,0.24161 -0.4129,0.24101 0.25527,0.39081 0.2553,0.39081 0.41228,-0.24161 0.41293,-0.24162 -0.2553,-0.3902 z m -2.99,0.0133 v 0.41256 0.41256 h 0.4359 0.4359 v -0.41256 -0.41256 h -0.4359 z m 16.99162,0.36424 v 0.43672 0.43611 h 0.4359 0.4359 v -0.18181 -0.18182 l -0.4359,-0.2549 z m 2.6141,0 v 0.43672 0.43611 h 0.4359 0.4359 v -0.18181 -0.18182 l -0.4359,-0.2549 z m -43.567843,0.0483 v 0.41256 0.41195 h 0.43525 0.4359 v -0.41195 -0.41256 h -0.4359 z m 14.81278,0 v 0.41256 0.41195 h 0.1921 0.1921 l 0.26932,-0.41195 0.269323,-0.41256 h -0.461423 z m 2.178853,0 v 0.41256 0.41195 h 0.65352 0.65353 v -0.41195 -0.41256 h -0.65353 z m 12.25037,0 -0.26931,0.41256 -0.26932,0.41195 h 0.46142 0.46142 v -0.41195 -0.41256 h -0.19211 z m -26.192653,0.27484 -0.29038,0.27483 -0.29039,0.27484 h 0.58077 0.58141 l -0.29103,-0.27484 z m 43.132583,0.0888 v 0.43672 0.43672 h 0.43592 0.4359 v -0.18181 -0.18182 l -0.4359,-0.25491 z m -40.953743,0.0489 v 0.41195 0.41256 h 0.43526 0.43589 v -0.41256 -0.41195 h -0.43589 z m 3.10105,0 -0.26933,0.41195 -0.26932,0.41256 h 0.46143 0.46142 v -0.41256 -0.41195 h -0.1921 z m 11.763423,0 -0.26931,0.41195 -0.26932,0.41256 h 0.46142 0.46142 v -0.41256 -0.41195 h -0.1921 z m 11.2248,0 0.26932,0.41195 0.26932,0.41256 h 0.1921 0.1921 v -0.41256 -0.41195 h -0.46142 z m 7.89399,0.36363 v 0.43672 0.43672 h 0.43524 0.4359 v -0.18182 -0.18181 l -0.4359,-0.25491 z m -28.806763,0.0483 0.26932,0.41256 0.26932,0.41256 h 0.1921 0.19211 v -0.41256 -0.41256 h -0.46143 z m 3.15273,0 -0.26931,0.41256 -0.26932,0.41256 h 0.46142 0.46142 v -0.41256 -0.41256 h -0.1921 z m 20.861083,0 v 0.20658 0.20598 h 0.21828 0.21762 v -0.20598 -0.20658 h -0.21762 z m 2.12715,0 0.26932,0.41256 0.26932,0.41256 h 0.1921 0.19211 v -0.41256 -0.41256 h -0.46142 z m 12.2504,0 v 0.41256 0.41256 h 0.1921 0.19211 l 0.26931,-0.41256 0.26932,-0.41256 h -0.46142 z m -49.667853,0.27544 -0.29038,0.27484 -0.29038,0.27484 h 0.58076 0.58141 l -0.29102,-0.27484 z m 2.6141,0 -0.29038,0.27484 -0.29039,0.27484 h 0.58077 0.58141 l -0.29102,-0.27484 z m 2.17884,0.0888 v 0.43611 0.43672 h 0.43526 0.43589 v -0.18181 -0.18182 l -0.43589,-0.2549 z m 11.763443,0.0483 v 0.41256 0.41195 h 0.43525 0.4359 v -0.41195 -0.41256 h -0.4359 z m 11.76344,0 v 0.41256 0.41195 h 0.40972 0.40973 l 0.26932,-0.41195 0.26932,-0.41256 h -0.67905 z m 2.61409,0 v 0.41256 0.41195 h 0.43524 0.43591 v -0.41195 -0.41256 h -0.43591 z m 11.76343,0 v 0.41256 0.41195 h 0.43525 0.4359 v -0.41195 -0.41256 h -0.4359 z m -6.53524,0.24765 v 0.42585 0.42645 l 0.29039,0.27484 0.29036,0.27483 0.22531,-0.21322 0.22465,-0.21322 -0.51567,-0.48746 z m 9.58459,0.0272 -0.2904,0.27484 -0.29036,0.27483 h 0.58076 0.5814 l -0.29101,-0.27483 z m -38.339653,0.13772 v 0.41195 0.41256 h 0.43526 0.43589 v -0.41256 -0.41195 h -0.43589 z m 11.763443,0 v 0.41195 0.41256 h 0.43524 0.4359 v -0.41256 -0.41195 h -0.4359 z m 14.37752,0 v 0.41195 0.41256 h 0.43525 0.4359 v -0.41256 -0.41195 h -0.4359 z m 14.37755,0 v 0.41195 0.41256 h 0.43525 0.4359 v -0.41256 -0.41195 h -0.4359 z m 2.1782,0.24705 -0.49077,0.46511 -0.49079,0.4645 0.28082,1.06069 0.28144,1.0613 h 0.20997 0.20933 v -1.5258 z m -11.32755,0.1649 v 0.41256 0.41256 h 0.43524 0.4359 v -0.41256 -0.41256 h -0.4359 z m -37.469153,0.27544 -0.29038,0.27484 -0.29039,0.27484 h 0.58077 0.58141 l -0.29102,-0.27484 z m 40.083243,0.13712 v 0.41256 0.41195 h 0.43525 0.4359 v -0.41195 -0.41256 h -0.4359 z m 2.6141,0 v 0.41256 0.41195 h 0.43525 0.4359 v -0.41195 -0.41256 h -0.4359 z m -37.469143,0.27484 -0.29039,0.27483 -0.29038,0.27484 h 0.58077 0.5814 l -0.29102,-0.27484 z m 66.659483,0 -0.29039,0.27483 -0.29035,0.27484 h 0.58074 0.58142 l -0.29102,-0.27484 z m -40.95378,0.13772 v 0.41195 0.41256 h 0.43525 0.4359 v -0.41256 -0.41195 h -0.4359 z m 2.6141,0 v 0.41195 0.41256 h 0.43525 0.4359 v -0.41256 -0.41195 h -0.4359 z m 11.76344,0 v 0.41195 0.41256 h 0.1921 0.19211 l 0.26933,-0.41256 0.26931,-0.41195 h -0.46143 z m 28.75511,0 v 0.41195 0.41256 h 0.43523 0.43591 v -0.41256 -0.41195 h -0.43591 z m -34.41921,0.36363 -0.4359,0.2549 -0.43524,0.25491 v 0.41195 0.41256 l 0.43524,-0.25491 0.4359,-0.2549 v -0.41195 z m -15.73627,0.0483 0.26932,0.41256 0.26932,0.41256 h 0.4359 0.4359 l -0.26932,-0.41256 -0.26931,-0.41256 h -0.43591 z m 12.25103,0 v 0.41256 0.41256 h 0.1921 0.19211 l 0.26931,-0.41256 0.26932,-0.41256 h -0.46142 z m 40.03093,0 0.26932,0.41256 0.26932,0.41256 h 0.19211 0.19209 v -0.41256 -0.41256 h -0.46141 z m -6.04764,0.27544 v 0.54968 0.54967 l 0.29038,-0.27484 0.29038,-0.27483 -0.29038,-0.27484 z m 9.14935,0 -0.29041,0.27484 -0.29101,0.27484 h 0.58142 0.58073 l -0.29035,-0.27484 z m -38.39204,0.13712 0.26931,0.41256 0.26932,0.41195 h 0.41038 0.40973 v -0.41195 -0.41256 h -0.67904 z m 31.85678,0.27483 v 0.54968 0.55028 l 0.2904,-0.27484 0.29036,-0.27544 -0.29036,-0.27484 z m 2.69004,0.0447 -0.52014,0.30384 -0.52015,0.30443 0.56994,0.33343 0.57058,0.33403 0.38544,-0.22591 0.38547,-0.2253 -0.4359,-0.41256 z m -30.95499,0.007 -0.57183,0.21625 -0.57183,0.21685 0.83477,0.0326 0.8354,0.032 -0.26356,-0.24886 z m -24.01701,0.0368 v 0.43672 0.43672 h 0.43525 0.4359 v -0.18182 -0.18181 l -0.4359,-0.25491 z m 14.75278,0.0356 -0.41289,0.24101 -0.41231,0.24161 0.25464,0.39021 0.2553,0.39081 0.41293,-0.24161 0.41228,-0.24101 -0.25465,-0.39081 z m -31.744413,0.0133 v 0.20598 0.20598 h 0.21763 0.21763 v -0.20598 -0.20598 h -0.21763 z m 28.755063,0 v 0.41196 0.41255 h 0.19211 0.1921 l 0.26932,-0.41255 0.26931,-0.41196 h -0.46142 z m 14.37755,0 v 0.41196 0.41255 h 0.1921 0.19211 l 0.26932,-0.41255 0.26931,-0.41196 h -0.46142 z m -23.52688,0.27484 -0.29039,0.27483 -0.29102,0.27484 h 0.58141 0.58075 l -0.29035,-0.27484 z m 14.37753,0 v 0.54967 0.54967 l 0.29039,-0.27483 0.29036,-0.27484 -0.29036,-0.27484 z m 2.61409,0.0888 v 0.43672 0.43672 h 0.43525 0.4359 v -0.18182 -0.18181 l -0.4359,-0.25491 z m -14.32648,0.0483 -0.26932,0.41255 -0.26932,0.41256 h 0.46142 0.46142 v -0.41256 -0.41255 h -0.1921 z m 5.17714,0.27544 v 0.54967 0.54967 l 0.2904,-0.27483 0.29036,-0.27484 -0.29036,-0.27484 z m -20.912763,0.13711 h 0.43524 0.43591 v 0.41256 0.41195 h -0.43591 -0.43524 v -0.41195 z m 32.676203,0 v 0.41256 0.41195 h 0.43525 0.4359 v -0.41195 -0.41256 h -0.4359 z m 25.65341,0 0.26932,0.41256 0.26932,0.41195 h 0.16658 0.16658 l 0.26932,-0.41195 0.26932,-0.41256 h -0.70522 z m 11.81513,0 v 0.41256 0.41195 h 0.19209 0.19211 l 0.26932,-0.41195 0.26932,-0.41256 h -0.46143 z m -60.9954,0.27484 -0.2904,0.27483 -0.29101,0.27484 h 0.58141 0.58075 l -0.29036,-0.27484 z m 17.36687,0.12443 -0.4129,0.24101 -0.4123,0.24162 0.25464,0.3902 0.2553,0.39082 0.41293,-0.24162 0.41228,-0.24101 -0.25465,-0.39081 z m -15.18868,0.0133 v 0.41196 0.41255 h 0.4359 0.43525 v -0.41255 -0.41196 h -0.43525 z m 11.76343,0 v 0.41196 0.41255 h 0.4359 0.43525 v -0.41255 -0.41196 h -0.43525 z m 11.71174,0 0.26932,0.41196 0.26932,0.41255 h 0.1921 0.1921 v -0.41255 -0.41196 h -0.46142 z m 3.15275,0 -0.26932,0.41196 -0.26931,0.41255 h 0.46142 0.46142 v -0.41255 -0.41196 h -0.19211 z m 23.47585,0 v 0.20598 0.20598 h 0.21762 0.21762 v -0.20598 -0.20598 h -0.21762 z m 2.1782,0 v 0.41196 0.41255 h 0.43591 0.43523 v -0.41255 -0.41196 H 158.944 Z m -57.94606,0.27484 0.29039,0.27484 0.29102,0.27483 -0.29102,0.27484 -0.29039,0.27484 v -0.54968 z m 8.27819,0.13712 v 0.41255 0.41256 h 0.4359 0.43525 v -0.41256 -0.41255 h -0.43525 z m 14.37752,0 v 0.41255 0.41256 h 0.43591 0.43524 v -0.41256 -0.41255 h -0.43524 z m 26.08931,0 0.26932,0.41255 0.26932,0.41256 h 0.19209 0.19211 v -0.41256 -0.41255 h -0.46143 z m 3.15272,0 -0.26932,0.41255 -0.26932,0.41256 h 0.46144 0.46143 v -0.41256 -0.41255 h -0.19211 z m -40.56955,0.27544 -0.2904,0.27483 -0.29101,0.27484 h 0.58141 0.58075 l -0.29036,-0.27484 z m -17.843013,0.0193 0.26997,0.2549 0.26997,0.25551 -0.55141,0.6282 -0.55141,0.6288 h -0.3823 -0.38229 v -0.43672 -0.43672 l 0.38995,0.22833 0.39058,0.22772 0.2738,-0.67531 z m 19.969503,0.11778 0.26932,0.41256 0.26932,0.41196 h 0.1921 0.1921 v -0.41196 -0.41256 h -0.46142 z m 11.81513,0 v 0.41256 0.41196 h 0.4359 0.43525 v -0.41196 -0.41256 h -0.43525 z m 28.7551,0 v 0.41256 0.41196 h 0.4359 0.43524 v -0.41196 -0.41256 h -0.43524 z m 11.76343,0 v 0.41256 0.41196 h 0.4359 0.43524 v -0.41196 -0.41256 h -0.43524 z m -49.23197,0.27484 -0.29039,0.27484 -0.29102,0.27484 h 0.58141 0.58076 l -0.29036,-0.27484 z m 11.76344,0 -0.29039,0.27484 -0.29102,0.27484 h 0.58141 0.58075 l -0.29036,-0.27484 z m -23.96277,0.13772 v 0.41196 0.41255 h 0.4359 0.43525 v -0.41255 -0.41196 h -0.43525 z m 14.37753,0 v 0.41196 0.41255 h 0.4359 0.43525 v -0.41255 -0.41196 h -0.43525 z m 11.76345,0 v 0.41196 0.41255 h 0.4359 0.43525 v -0.41255 -0.41196 h -0.43525 z m 26.08928,0 0.26932,0.41196 0.26932,0.41255 h 0.19211 0.19211 v -0.41255 -0.41196 h -0.46143 z m -15.85179,0.0676 -1.08878,0.56961 -1.08879,0.57021 0.65352,0.008 0.65352,0.008 0.6414,-0.38356 0.64075,-0.38356 -0.20611,-0.19511 z m -33.32847,0.20719 -0.29039,0.27484 -0.29102,0.27483 h 0.58141 0.58075 l -0.29035,-0.27483 z m 2.1782,0.13712 v 0.41255 0.41256 h 0.4359 0.43524 v -0.41256 -0.41255 h -0.43524 z m 11.76343,0 v 0.41255 0.41256 h 0.4359 0.43524 v -0.41256 -0.41255 h -0.43524 z m 11.71176,0 0.26931,0.41255 0.26932,0.41256 h 0.1921 0.19211 v -0.41256 -0.41255 h -0.46142 z m 14.42922,0 v 0.41255 0.41256 h 0.4359 0.43527 v -0.41256 -0.41255 h -0.43527 z m 2.61411,0 v 0.41255 0.41256 h 0.4359 0.43524 v -0.41256 -0.41255 h -0.43524 z m -32.60732,0.20657 -0.0344,0.79009 -0.0345,0.79068 0.26295,-0.24947 0.26356,-0.24886 -0.22909,-0.54122 z m 6.90222,0.0689 -0.29039,0.27483 -0.29101,0.27484 h 0.5814 0.58076 l -0.29036,-0.27484 z m -12.19933,0.13711 v 0.41256 0.41195 h 0.19211 0.1921 l 0.26932,-0.41195 0.26931,-0.41256 h -0.46142 z m 2.6141,0 v 0.41256 0.41195 h 0.43589 0.43525 v -0.41195 -0.41256 h -0.43525 z m 11.76343,0 v 0.41256 0.41195 h 0.4359 0.43525 v -0.41195 -0.41256 h -0.43525 z m 26.08931,0 0.26932,0.41256 0.26932,0.41195 h 0.19209 0.19211 v -0.41195 -0.41256 h -0.46143 z m 2.66578,0 v 0.41256 0.41195 h 0.43591 0.43524 v -0.41195 -0.41256 h -0.43524 z m 11.32753,0 v 0.41256 0.41195 h 0.4359 0.4359 v -0.41195 -0.41256 h -0.4359 z m -63.11934,0.32679 -0.57184,0.21624 -0.57183,0.21685 0.83478,0.0326 0.8354,0.032 -0.26357,-0.24886 z m 42.70248,0.0725 -0.27316,0.4186 -0.27379,0.4192 h 0.67905 0.67903 v -0.18181 -0.18182 l -0.40524,-0.23739 z m -40.57853,0.0133 v 0.41196 0.41255 h 0.4359 0.43525 v -0.41255 -0.41196 h -0.43525 z m 23.52687,0 v 0.41196 0.41255 h 0.4359 0.43524 v -0.41255 -0.41196 h -0.43524 z m 2.61411,0 v 0.41196 0.41255 h 0.4359 0.43525 v -0.41255 -0.41196 H 132.803 Z m 26.62793,0 -0.26932,0.41196 -0.26932,0.41255 h 0.46141 0.46143 v -0.41255 -0.41196 h -0.19211 z m -37.95548,0.27484 -0.29039,0.27484 -0.29102,0.27483 h 0.58141 0.58075 l -0.29036,-0.27483 z m 2.17819,0 v 0.54967 0.54968 l 0.2904,-0.27484 0.29036,-0.27484 -0.29036,-0.27483 z m 26.14101,0 v 0.54967 0.54968 l 0.29038,-0.27484 0.29035,-0.27484 -0.29035,-0.27483 z m -40.51853,0.13712 v 0.41255 0.41256 h 0.1921 0.1921 l 0.26932,-0.41256 0.26932,-0.41255 h -0.46142 z m 43.56851,0.27544 -0.29038,0.27483 -0.29101,0.27484 h 0.58139 0.58076 l -0.29035,-0.27484 z m 14.37754,0 -0.29038,0.27483 -0.29101,0.27484 h 0.58139 0.58076 l -0.29035,-0.27484 z m -54.84181,0.0513 -0.57184,0.21625 -0.57183,0.21685 0.83478,0.0326 0.8354,0.0326 -0.26357,-0.24947 z m -10.07538,0.0858 v 0.41256 0.41196 h 0.4359 0.4359 v -0.41196 -0.41256 h -0.4359 z m 11.71239,0 0.26931,0.41256 0.26932,0.41196 h 0.1921 0.19211 v -0.41196 -0.41256 h -0.46142 z m 11.76343,0 0.26932,0.41256 0.26932,0.41196 h 0.1921 0.1921 v -0.41196 -0.41256 h -0.46142 z m 3.15273,0 -0.26931,0.41256 -0.26932,0.41196 h 0.46142 0.46142 v -0.41196 -0.41256 h -0.1921 z m 26.08931,0 v 0.41256 0.41196 h 0.4359 0.43524 v -0.41196 -0.41256 h -0.43524 z m -37.90444,0.27484 -0.29039,0.27484 -0.29036,0.27484 h 0.58075 0.58076 l -0.29036,-0.27484 z m 40.95443,0 -0.29038,0.27484 -0.29102,0.27484 h 0.5814 0.58076 l -0.29036,-0.27484 z m -53.2048,0.13772 0.26932,0.41196 0.26932,0.41255 h 0.1921 0.1921 v -0.41255 -0.41196 h -0.46142 z m 14.91616,0 -0.26931,0.41196 -0.26932,0.41255 h 0.46142 0.46142 v -0.41255 -0.41196 h -0.1921 z m 11.71176,0 v 0.41196 0.41255 h 0.1921 0.19211 l 0.26932,-0.41255 0.26931,-0.41196 h -0.46142 z m 28.26815,0 0.26932,0.41196 0.26932,0.41255 h 0.4097 0.40974 v -0.41255 -0.41196 h -0.67906 z m -51.79503,0.27484 -0.29039,0.27484 -0.29036,0.27483 h 0.58075 0.58075 l -0.29036,-0.27483 z m 16.99162,0 v 0.54967 0.54967 l 0.2904,-0.27483 0.29036,-0.27484 -0.29036,-0.27483 z m 9.14936,0 -0.29039,0.27484 -0.29037,0.27483 h 0.58076 0.58075 l -0.29036,-0.27483 z m 14.37753,0 v 0.54967 0.54967 l 0.29041,-0.27483 0.29035,-0.27484 -0.29035,-0.27483 z m 2.61411,0.0888 v 0.6427 0.6427 h -0.87114 -0.8718 v 0.41255 0.41256 h 0.3874 0.38738 l 0.99052,-0.75928 0.99047,-0.75867 -0.50673,-0.29658 z m 2.61408,0 v 0.43672 0.43672 h 0.43591 0.43526 v -0.18182 -0.18181 l -0.43526,-0.25491 z m -43.5685,0.0482 v 0.41256 0.41255 h 0.4359 0.4359 v -0.41255 -0.41256 h -0.4359 z m 11.71239,0 0.26931,0.41256 0.26932,0.41255 h 0.1921 0.19211 v -0.41255 -0.41256 h -0.46142 z m 43.67127,0 -0.26932,0.41256 -0.26932,0.41255 h 0.43524 0.4359 l 0.26932,-0.41255 0.26932,-0.41256 h -0.4359 z m -37.95614,0.27544 v 0.54967 0.54968 l 0.29039,-0.27484 0.29036,-0.27484 -0.29036,-0.27483 z m 3.05,0.0888 -0.44293,0.25853 -0.44289,0.25913 0.25079,0.38417 0.25082,0.38356 h 0.19211 0.1921 v -0.64269 z m -17.91447,0.0483 0.26932,0.41255 0.26932,0.41196 h 0.1921 0.1921 v -0.41196 -0.41255 h -0.46142 z m 2.66513,0 v 0.41255 0.41196 h 0.43591 0.43589 v -0.41196 -0.41255 h -0.43589 z m 41.00613,0 -0.26932,0.41255 -0.26931,0.41196 h 0.4614 0.46144 v -0.41196 -0.41255 h -0.19212 z m 11.27583,0 v 0.41255 0.41196 h 0.4359 0.4359 v -0.41196 -0.41255 h -0.4359 z m -63.60949,0.27483 -0.29039,0.27484 -0.29036,0.27484 h 0.58075 0.58076 l -0.29036,-0.27484 z m 43.56852,0.0888 -0.4359,0.2549 -0.4359,0.2549 v 0.41256 0.41196 l 0.4359,-0.25491 0.4359,-0.2543 v -0.41255 z m -41.39032,0.0489 v 0.41196 0.41255 h 0.4359 0.4359 v -0.41255 -0.41196 h -0.4359 z m 11.76343,0 v 0.41196 0.41255 h 0.41038 0.40973 l 0.26932,-0.41255 0.26931,-0.41196 h -0.67904 z m 2.6141,0 v 0.41196 0.41255 h 0.4359 0.4359 v -0.41255 -0.41196 h -0.4359 z m 11.76345,0 v 0.41196 0.41255 h 0.4359 0.4359 v -0.41255 -0.41196 h -0.4359 z m 26.57689,0 v 0.41196 0.41255 h 0.19209 0.19212 l 0.26932,-0.41255 0.26931,-0.41196 h -0.46143 z m 2.61409,0.27484 -0.29038,0.27484 -0.29038,0.27483 h 0.58076 0.58076 l -0.29036,-0.27483 z m -54.02491,0.096 v 0.80096 0.80155 l 0.658,0.2386 0.65735,0.2392 -0.11296,0.52672 -0.11297,0.52672 0.82138,-0.13349 0.82201,-0.1341 -0.27569,0.67894 -0.27507,0.67954 0.4493,0.79491 0.4493,0.79492 h 1.0741 1.07344 l 0.8718,-0.82511 0.87115,-0.82452 v -0.41799 -0.41799 l -0.54438,-0.91694 -0.54504,-0.91753 -0.82776,-0.58712 -0.82775,-0.58713 -2.1131,-0.16007 z m 44.93557,0.0278 -0.27316,0.4192 -0.27379,0.4192 h 0.67906 0.67905 v -0.18182 -0.18181 l -0.40526,-0.23739 z m -29.251,0.0133 v 0.41256 0.41256 h 0.4359 0.43591 v -0.41256 -0.41256 h -0.43591 z m 11.71241,0 0.26932,0.41256 0.26932,0.41256 h 0.1921 0.19211 v -0.41256 -0.41256 h -0.46142 z m 28.80614,0 v 0.41256 0.41256 h 0.4359 0.4359 v -0.41256 -0.41256 h -0.4359 z m -61.43131,0.27544 v 0.54968 0.54967 l 0.29039,-0.27483 0.29101,-0.27484 -0.29101,-0.27484 z m 41.39031,0.0888 -0.43591,0.2543 -0.43591,0.2549 v 0.41256 0.41256 l 0.43591,-0.25491 0.43591,-0.2549 v -0.41256 z m -44.864713,0.0483 h 0.38803 0.38868 l 0.15061,2.06219 0.15126,2.06218 -0.32677,-5.3e-4 h -0.32676 l -0.0491,-0.72182 -0.0485,-0.72183 -0.16404,-1.33975 z m 15.237833,0 v 0.41256 0.41195 h 0.1921 0.1921 l 0.26932,-0.41195 0.26932,-0.41256 h -0.46143 z m 2.61409,0 v 0.41256 0.41195 h 0.4359 0.4359 v -0.41195 -0.41256 h -0.4359 z m 9.14934,0 v 0.41256 0.41195 h 0.1921 0.19211 l 0.26931,-0.41195 0.26932,-0.41256 h -0.46142 z m 2.6141,0 v 0.41256 0.41195 h 0.4359 0.4359 v -0.41195 -0.41256 h -0.4359 z m 16.55642,0 v 0.41256 0.41195 h 0.67902 0.67906 l -0.26932,-0.41195 -0.26932,-0.41256 h -0.40974 z m 9.58458,0 v 0.41256 0.41195 h 0.4359 0.4359 v -0.41195 -0.41256 h -0.4359 z m 11.76343,0 v 0.41256 0.41195 h 0.4359 0.4359 v -0.41195 -0.41256 h -0.4359 z m -75.808823,0.27484 -0.29039,0.27483 -0.29038,0.27484 h 0.58077 0.5814 l -0.29102,-0.27484 z m 67.095383,0 -0.29038,0.27483 -0.29038,0.27484 h 0.58076 0.58076 l -0.29036,-0.27484 z m -53.2048,0.13772 0.26932,0.41195 0.26931,0.41256 h 0.16659 0.16593 l 0.26932,-0.41256 0.26931,-0.41195 h -0.70456 z m 14.86447,0 v 0.41195 0.41256 h 0.1921 0.1921 l 0.26932,-0.41256 0.26932,-0.41195 h -0.46142 z m 11.76343,0 v 0.41195 0.41256 h 0.43592 0.4359 v -0.41256 -0.41195 h -0.4359 z m 16.99165,0 v 0.41195 0.41256 h 0.4359 0.4359 v -0.41256 -0.41195 h -0.4359 z m 11.76345,0 v 0.41195 0.41256 h 0.43591 0.4359 v -0.41256 -0.41195 h -0.4359 z m 3.04999,0.27484 -0.29038,0.27483 -0.29035,0.27484 h 0.58073 0.58076 l -0.29035,-0.27484 z m -40.95443,0.13711 v 0.41256 0.41256 h 0.19211 0.1921 l 0.26932,-0.41256 0.26932,-0.41256 h -0.46142 z m 2.6141,0 v 0.41256 0.41256 h 0.4359 0.4359 v -0.41256 -0.41256 h -0.4359 z m 9.14936,0 v 0.41256 0.41256 h 0.1921 0.19211 l 0.26931,-0.41256 0.26932,-0.41256 h -0.46142 z m 2.61409,0 v 0.41256 0.41256 h 0.43591 0.4359 v -0.41256 -0.41256 h -0.4359 z m 14.37755,0 v 0.41256 0.41256 h 0.4359 0.4359 v -0.41256 -0.41256 h -0.4359 z m 14.37754,0 v 0.41256 0.41256 h 0.4359 0.4359 v -0.41256 -0.41256 h -0.4359 z m -49.66788,0.27544 v 0.54968 0.54967 l 0.2904,-0.27484 0.29101,-0.27483 -0.29101,-0.27484 z m 23.9628,0 -0.29041,0.27484 -0.29035,0.27484 h 0.58076 0.58073 l -0.29035,-0.27484 z m 28.31916,0 v 0.54968 0.54967 l 0.29041,-0.27484 0.29101,-0.27483 -0.29101,-0.27484 z m -37.90442,0.0888 v 0.43611 0.43672 h 0.4359 0.4359 v -0.18181 -0.18182 l -0.4359,-0.2549 z m -2.6141,0.0483 v 0.41256 0.41195 h 0.4359 0.4359 v -0.41195 -0.41256 h -0.4359 z m 14.37754,0 v 0.41256 0.41195 h 0.4359 0.4359 v -0.41195 -0.41256 h -0.4359 z m 2.61413,0 v 0.6427 0.64329 l 0.4359,-0.2549 0.4359,-0.2549 v -0.3884 -0.38779 h -0.4359 z m 9.09828,0 0.26931,0.41256 0.26932,0.41195 h 0.16595 0.16658 l 0.26932,-0.41195 0.26932,-0.41256 h -0.70522 z m 2.66514,0 v 0.41256 0.41195 h 0.4359 0.43591 v -0.41195 -0.41256 h -0.43591 z m -38.27393,0.0501 -0.69695,1.00572 -0.69627,1.00572 h 0.4461 0.44547 v -0.41196 -0.41255 h 0.62801 0.62735 l 0.24124,-0.36907 0.24125,-0.36907 -0.61842,-0.2247 z m 2.9836,0.31349 v 0.43672 0.43672 h 0.4359 0.4359 v -0.18182 -0.18181 l -0.4359,-0.25491 z m 11.76345,0 v 0.43672 0.43672 h 0.4359 0.4359 v -0.18182 -0.18181 l -0.4359,-0.25491 z m -40.953763,0.0489 v 0.41195 0.41256 h 0.43526 0.43589 v -0.41256 -0.41195 h -0.43589 z m 12.198683,0 v 0.20597 0.20598 h 0.21828 0.21762 v -0.20598 -0.20597 h -0.21762 z m 2.17885,0 v 0.41195 0.41256 h 0.43525 0.4359 v -0.41256 -0.41195 h -0.4359 z m 40.51853,0 v 0.41195 0.41256 h 0.43524 0.4359 v -0.41256 -0.41195 h -0.4359 z m 12.19869,0 v 0.41195 0.41256 h 0.4359 0.43591 v -0.41256 -0.41195 h -0.43591 z m 2.61409,0 v 0.41195 0.41256 h 0.4359 0.4359 v -0.41256 -0.41195 h -0.4359 z m -37.90444,0.27483 v 0.54968 0.54967 l 0.2904,-0.27483 0.29101,-0.27484 -0.29101,-0.27484 z m 14.37755,0 v 0.54968 0.54967 l 0.2904,-0.27483 0.29101,-0.27484 -0.29101,-0.27484 z m 14.37754,0.0888 v 0.43672 0.43671 h 0.4359 0.4359 v -0.18181 -0.18182 l -0.4359,-0.2549 z m 14.81344,0 -0.4359,0.2549 -0.43524,0.2549 v 0.3878 0.38779 h 0.43524 0.4359 v -0.6427 z m -32.29201,0.0483 0.26931,0.41256 0.26932,0.41255 h 0.1921 0.19211 v -0.41255 -0.41256 h -0.46142 z m 14.86449,0 v 0.41256 0.41255 h 0.19209 0.19211 l 0.26932,-0.41255 0.26932,-0.41256 h -0.46143 z m 13.94227,0 v 0.41256 0.41255 h 0.40973 0.40974 l 0.26932,-0.41255 0.26932,-0.41256 h -0.67906 z m -37.46918,0.27544 -0.29039,0.27484 -0.29036,0.27483 h 0.58075 0.58141 l -0.29102,-0.27483 z m 14.37755,0 v 0.54967 0.54968 l 0.29038,-0.27484 0.29102,-0.27484 -0.29102,-0.27483 z m 2.61408,0.0888 v 0.43611 0.43672 h 0.43591 0.43591 v -0.18181 -0.18182 l -0.43591,-0.2549 z m 14.37756,0 v 0.43611 0.43672 h 0.4359 0.4359 v -0.18181 -0.18182 l -0.4359,-0.2549 z m -29.19034,0.0483 v 0.41255 0.41196 h 0.40973 0.40972 l 0.26932,-0.41196 0.26932,-0.41255 h -0.67905 z m 26.57625,0 v 0.41255 0.41196 h 0.4359 0.4359 v -0.41196 -0.41255 h -0.4359 z m -23.52691,0.27484 -0.29039,0.27483 -0.29036,0.27484 h 0.58075 0.58143 l -0.29101,-0.27484 z m 31.74511,0.12443 -0.41294,0.24101 -0.41291,0.24161 0.25527,0.39021 0.2553,0.39081 0.4123,-0.24161 0.41291,-0.24101 -0.2553,-0.39082 z m -70.084753,0.0133 v 0.41195 0.41256 h 0.43525 0.4359 v -0.41256 -0.41195 h -0.4359 z m 4.79229,0 h 0.21763 0.21827 v 0.20598 0.20597 h -0.21827 -0.21763 v -0.20597 z m 9.585243,0 v 0.41195 0.41256 h 0.43525 0.4359 v -0.41256 -0.41195 h -0.4359 z m 11.76343,0 v 0.41195 0.41256 h 0.43525 0.4359 v -0.41256 -0.41195 h -0.4359 z m 3.10104,0 -0.26932,0.41195 -0.26932,0.41256 h 0.46143 0.46142 v -0.41256 -0.41195 h -0.19211 z m 11.27651,0 v 0.41195 0.41256 h 0.43525 0.4359 v -0.41256 -0.41195 h -0.4359 z m 11.71176,0 0.26932,0.41195 0.26932,0.41256 h 0.19208 0.19212 v -0.41256 -0.41195 h -0.46144 z m 2.61408,0 0.26932,0.41195 0.26932,0.41256 h 0.4359 0.43527 l -0.26932,-0.41256 -0.26932,-0.41195 h -0.43527 z m 12.25039,0 v 0.41195 0.41256 h 0.43591 0.4359 v -0.41256 -0.41195 h -0.4359 z m -35.77728,0.41195 0.26932,0.41256 0.26931,0.41256 h 0.19211 0.1921 v -0.41256 -0.41256 h -0.46142 z m 11.81515,0 v 0.41256 0.41256 h 0.43524 0.43591 v -0.41256 -0.41256 h -0.43591 z m 2.5624,0 0.26932,0.41256 0.2693,0.41256 h 0.19212 0.19211 v -0.41256 -0.41256 h -0.46143 z m 12.25039,0 v 0.41256 0.41256 h 0.4359 0.4359 v -0.41256 -0.41256 h -0.4359 z m 2.66578,0 -0.26932,0.41256 -0.26932,0.41256 h 0.67906 0.67969 v -0.41256 -0.41256 h -0.41037 z m 11.27652,0 v 0.41256 0.41256 h 0.43524 0.4359 v -0.41256 -0.41256 h -0.4359 z m -35.29035,0.36424 v 0.43611 0.43672 h 0.43525 0.4359 v -0.18181 -0.18182 l -0.4359,-0.2549 z m -14.37753,0.0483 v 0.20598 0.20658 h 0.21762 0.21762 v -0.20658 -0.20598 h -0.21762 z m 3.18273,0 -0.93817,0.77015 -0.93752,0.77015 v 0.26396 0.26457 l 0.76201,-0.38598 0.76267,-0.38538 0.79011,-0.23376 0.79008,-0.23316 -0.27122,-0.41497 -0.27124,-0.41558 h -0.34336 z m 8.52901,0 0.26931,0.41256 0.26932,0.41195 h 0.19211 0.1921 v -0.41195 -0.41256 h -0.46142 z m 28.75509,0 0.26932,0.41256 0.26932,0.41195 h 0.19209 0.19211 v -0.41195 -0.41256 h -0.46143 z m 3.10105,0.27484 v 0.54967 0.55028 l 0.29038,-0.27484 0.29102,-0.27544 -0.29102,-0.27484 z m 2.61409,0 v 0.54967 0.55028 l 0.2904,-0.27484 0.29102,-0.27544 -0.29102,-0.27484 z m -67.094743,0.13772 v 0.41195 0.41256 h 0.43524 0.43591 v -0.41256 -0.41195 h -0.43591 z m 14.377533,0 v 0.64269 0.6427 l 0.43525,-0.2549 0.4359,-0.2543 v -0.3884 -0.38779 h -0.4359 z m 11.76343,0 v 0.41195 0.41256 h 0.43525 0.4359 v -0.41256 -0.41195 h -0.4359 z m 11.76345,0 v 0.41195 0.41256 h 0.43525 0.4359 v -0.41256 -0.41195 h -0.4359 z m 3.04935,0.27484 -0.2904,0.27483 -0.29036,0.27484 h 0.58076 0.5814 l -0.29101,-0.27484 z m 16.99163,0 v 0.54967 0.54967 l 0.29041,-0.27483 0.29101,-0.27484 -0.29101,-0.27484 z m 11.76346,0 -0.29041,0.27483 -0.29035,0.27484 h 0.58076 0.58139 l -0.29101,-0.27484 z m -26.57624,0.0888 v 0.43672 0.43671 h 0.43524 0.4359 v -0.18181 -0.18182 l -0.4359,-0.2549 z m 2.6141,0 v 0.43672 0.43671 h 0.43524 0.4359 v -0.18181 -0.18182 l -0.4359,-0.2549 z m 15.24869,0 -0.44294,0.25913 -0.44288,0.25853 0.2508,0.38416 0.25082,0.38357 h 0.19209 0.19211 v -0.6427 z m -32.24034,0.0483 v 0.41256 0.41255 h 0.43524 0.4359 v -0.41255 -0.41256 h -0.4359 z m 2.61409,0 v 0.6433 0.6427 l 0.43525,-0.25491 0.4359,-0.2549 v -0.38779 -0.3884 h -0.4359 z m 23.96216,0 v 0.20658 0.20598 h 0.21828 0.21762 v -0.20598 -0.20658 h -0.21762 z m -35.72559,0.41256 v 0.41255 0.41196 h 0.19211 0.1921 l 0.26931,-0.41196 0.26932,-0.41255 h -0.46142 z m 14.37753,0 v 0.41255 0.41196 h 0.43525 0.4359 v -0.41196 -0.41255 h -0.4359 z m 28.7551,0 v 0.41255 0.41196 h 0.40973 0.40971 l 0.26932,-0.41196 0.26932,-0.41255 h -0.67903 z m -37.53748,0.20598 -0.22018,0.51584 -0.21955,0.51525 h -1.10599 -1.10668 l 0.51057,0.58169 0.50994,0.58229 -0.45694,0.26698 -0.45698,0.26699 -0.43525,-0.25491 -0.43589,-0.2543 v 0.40229 0.40229 l 0.54438,0.1794 0.54504,0.18 0.54439,-0.18967 0.54438,-0.18966 v -0.39746 -0.39745 l 0.65352,-0.61854 0.65353,-0.61853 -0.0344,-0.48626 z m 14.01059,0.0689 v 0.54967 0.55028 l 0.29039,-0.27484 0.29037,-0.27544 -0.29037,-0.27484 z m -37.469173,0.0888 -0.44227,0.25913 -0.44292,0.25913 0.2502,0.38357 0.25079,0.38416 h 0.1921 0.1921 v -0.64329 z m 25.705723,0 v 0.6427 0.64329 h 0.1921 0.19211 l 0.25078,-0.38416 0.25021,-0.38357 -0.44293,-0.25913 z m 10.0205,0.0489 -0.76268,0.006 -0.76201,0.007 0.65353,0.39927 0.65354,0.39987 0.10848,0.007 0.10914,0.006 v -0.41256 z m 27.88395,0 v 0.41196 0.41256 h 0.43523 0.43591 v -0.41256 -0.41196 h -0.43591 z m -47.05378,0.27484 v 0.54968 0.54967 l 0.29039,-0.27484 0.29036,-0.27483 -0.29036,-0.27484 z m 23.96212,0 -0.29039,0.27484 -0.29036,0.27484 h 0.58075 0.58141 l -0.29101,-0.27484 z m -9.5846,0.0888 v 0.43672 0.43671 h 0.43525 0.4359 v -0.18181 -0.18182 l -0.4359,-0.2549 z m -29.677903,0.0483 0.26932,0.41256 0.26932,0.41255 h 0.40972 0.40973 v -0.41255 -0.41256 h -0.67904 z m 12.250383,0 v 0.41256 0.41255 h 0.4359 0.43525 v -0.41255 -0.41256 h -0.43525 z m 14.81343,0 v 0.41256 0.41255 h 0.43524 0.4359 v -0.41255 -0.41256 h -0.4359 z m -20.91277,0.27544 v 0.54967 0.54968 l 0.29039,-0.27484 0.29036,-0.27484 -0.29036,-0.27483 z m 26.14096,0.0888 v 0.43612 0.43672 h 0.43525 0.4359 v -0.18182 -0.18181 l -0.4359,-0.2549 z m -14.81343,0.0483 v 0.41255 0.41196 h 0.40972 0.41038 l 0.26932,-0.41196 0.26932,-0.41255 h -0.6797 z m 17.42754,0.27483 v 0.54968 0.55028 l 0.29039,-0.27484 0.29037,-0.27544 -0.29037,-0.27484 z m 2.67409,0.12444 -0.27379,0.41859 -0.27379,0.4192 h 0.67969 0.67905 v -0.18181 -0.18182 l -0.40525,-0.23738 z m -26.14993,0.0133 -0.26932,0.41195 -0.26931,0.41256 h 0.46142 0.46142 v -0.41256 -0.41195 h -0.19211 z m 11.27649,0 v 0.41195 0.41256 h 0.67904 0.6797 l -0.26932,-0.41256 -0.26931,-0.41195 h -0.41038 z m 17.53603,0.37752 -1.25088,1.25459 -1.25153,1.25398 h -1.79974 -1.79912 l -0.57374,0.65417 -0.57376,0.65417 -1.22216,-0.23134 -1.22281,-0.23135 v 0.40229 0.40168 h 0.4359 0.43525 v 0.41256 0.41196 h -2.30904 -2.30903 l -0.53291,-0.50377 -0.53289,-0.50437 -1.51447,0.12322 -1.5151,0.12383 v -0.44397 -0.44397 h 0.70715 0.70649 l -0.54249,-0.61853 -0.54246,-0.61854 0.27121,-0.0519 0.27125,-0.0513 0.50867,-0.0513 0.50798,-0.052 0.14809,-0.4192 0.1474,-0.4192 -1.73592,-0.0429 -1.73655,-0.0429 0.25145,0.38478 0.25147,0.38537 -0.76906,0.80458 -0.76904,0.80458 -0.85775,-0.25732 -0.85775,-0.25792 0.29614,1.11565 0.2955,1.11627 -1.21069,1.06189 -1.21068,1.06251 0.53866,0.16973 0.53864,0.16973 v 0.53639 0.53578 l -0.95604,0.23678 -0.95604,0.23678 0.80544,0.84204 0.80605,0.84262 h 0.82903 0.82964 l -0.28719,-0.44034 -0.28781,-0.44095 -0.64588,0.23498 -0.64588,0.23436 0.17489,-0.49712 0.1755,-0.49773 1.93058,-0.93445 1.93057,-0.93444 1.01666,-0.0115 1.01669,-0.0121 -0.19149,0.51584 -0.19145,0.51525 -1.28152,-0.0513 -1.28088,-0.0519 -0.0613,0.77317 -0.0613,0.77316 h 0.46589 0.4659 l 1.47873,-0.86438 1.47808,-0.86498 0.62862,0.22833 0.62866,0.22833 0.25719,-0.39444 0.25782,-0.39444 h 1.06325 1.0639 l -0.10914,-0.48806 -0.10913,-0.48746 1.08942,-0.49289 1.08943,-0.4929 1.30705,-0.27121 1.30704,-0.27121 -1.85973,1.07337 -1.85911,1.07338 0.23615,0.36121 0.2355,0.36121 -2.62433,1.14043 -2.62429,1.13982 v 0.32678 0.32618 h 1.36256 1.36195 l 2.73663,-1.27452 2.73598,-1.27512 0.19658,-0.71216 0.1972,-0.71216 1.47682,-0.66626 1.47745,-0.66564 1.34728,-1.36754 1.34661,-1.36754 0.98794,-1.36332 0.98793,-1.36391 -0.21122,-0.19994 z m -41.062893,0.0344 v 0.41256 0.41256 h 0.1921 0.1921 l 0.26932,-0.41256 0.26932,-0.41256 h -0.46142 z m 2.61409,0 v 0.41256 0.41256 h 0.4359 0.43525 v -0.41256 -0.41256 h -0.43525 z m 11.763443,0 v 0.41256 0.41256 h 0.4359 0.43524 v -0.41256 -0.41256 h -0.43524 z m 11.76343,0 v 0.41256 0.41256 h 0.4359 0.43524 v -0.41256 -0.41256 h -0.43524 z m -8.71344,0.27544 -0.29039,0.27484 -0.29101,0.27484 h 0.5814 0.58075 l -0.29035,-0.27484 z m 16.55573,0.0888 v 0.43611 0.43672 h 0.4359 0.43524 v -0.18181 -0.18182 l -0.43524,-0.2549 z m -28.75506,0.0483 v 0.41256 0.41195 h 0.4359 0.43525 v -0.41195 -0.41256 h -0.43525 z m 23.96276,0 v 0.20598 0.20658 h 0.21763 0.21762 v -0.20658 -0.20598 h -0.21762 z m 2.66514,0 -0.26932,0.41256 -0.26931,0.41195 h 0.46142 0.46142 v -0.41195 -0.41256 h -0.19211 z m -18.78561,0.41256 v 0.64269 0.6427 l 0.4359,-0.25491 0.43525,-0.2543 v -0.38839 -0.38779 h -0.43525 z m 23.47519,0 0.26931,0.41195 0.26932,0.41256 h 0.1921 0.19211 v -0.41256 -0.41195 h -0.46142 z m -32.609863,0.26094 -0.26866,0.2543 -0.2687,0.2543 0.29101,0.44639 0.29167,0.44698 0.443553,-0.25974 0.44355,-0.25913 -0.46587,-0.44155 z m -2.62877,0.0828 -0.54438,0.20779 -0.54504,0.20779 h 1.08942 1.08943 l -0.54504,-0.20779 z m 14.864483,0.0683 -0.26932,0.41256 -0.26932,0.41255 h 0.46142 0.46142 v -0.41255 -0.41256 h -0.1921 z m 11.76343,0 -0.26932,0.41256 -0.26932,0.41255 h 0.46142 0.46142 v -0.41255 -0.41256 h -0.1921 z m 2.56305,0.27544 -0.29039,0.27484 -0.29102,0.27483 h 0.58141 0.58076 l -0.29036,-0.27483 z m -23.96276,0.0888 v 0.43612 0.43672 h 0.4359 0.43524 v -0.18181 -0.18182 l -0.43524,-0.25491 z m 11.76343,0.0483 v 0.41255 0.41196 h 0.4359 0.43524 v -0.41196 -0.41255 h -0.43524 z m 3.04999,0.27483 -0.29039,0.27484 -0.29102,0.27484 h 0.58141 0.58076 l -0.29036,-0.27484 z m 11.76344,0 -0.29039,0.27484 -0.29102,0.27484 h 0.58141 0.58075 l -0.29036,-0.27484 z m -21.34867,0.0888 v 0.6427 0.64329 h 0.1921 0.19211 l 0.25082,-0.38416 0.25079,-0.38357 -0.44289,-0.25913 z m 14.81343,0.32376 -0.2904,0.27484 -0.29101,0.27484 h 0.58141 0.58075 l -0.29036,-0.27484 z m 2.17819,0 v 0.54968 0.54967 l 0.2904,-0.27484 0.29036,-0.27483 -0.29036,-0.27484 z m -11.76343,0.0888 v 0.64269 0.6427 h 0.19211 0.1921 l 0.25082,-0.38357 0.25079,-0.38417 -0.44289,-0.25852 z m -3.10103,0.0483 0.26931,0.41256 0.26932,0.41255 h 0.16593 0.16658 l 0.26932,-0.41255 0.26932,-0.41256 h -0.70522 z m -8.2265,0.41256 -0.76266,0.007 -0.762673,0.006 0.653533,0.39987 0.65352,0.39987 0.10914,0.006 0.10914,0.006 v -0.41196 z m 2.17819,0.27483 -0.29039,0.27484 -0.29036,0.27484 h 0.58075 0.58076 l -0.29036,-0.27484 z m 4.74126,0.54968 0.26932,0.41255 0.26931,0.41256 h 0.19211 0.1921 v -0.41256 -0.41255 h -0.46142 z m -6.53524,0.41255 0.26931,0.41256 0.26932,0.41196 h 0.1921 0.19211 v -0.41196 -0.41256 h -0.46142 z m 5.27923,0.41256 v 0.41196 0.41255 h 0.4359 0.4359 v -0.41255 -0.41196 h -0.4359 z m 12.19933,0.0429 v 0.3147 0.31531 l -1.69315,0.90062 -1.69318,0.90062 h -0.33507 -0.33506 l 0.76332,-0.79854 0.76394,-0.79854 1.26427,-0.41678 z m -44.838523,1.57956 0.390583,0.22832 0.390586,0.22833 -0.167852,0.82511 -0.167849,0.82512 0.864135,4.95431 0.864134,4.95371 -0.227206,0.34793 -0.2272,0.34732 -0.862854,0.21383 -0.862859,0.21383 -0.207417,-0.67954 -0.20678,-0.67954 -0.482484,-1.76621 -0.482483,-1.76681 -0.0096,-2.83716 -0.0096,-2.83777 0.702667,-1.28539 z m 37.919083,1.26364 -0.26932,0.41256 -0.26932,0.41256 h 0.46142 0.46142 v -0.41256 -0.41256 h -0.1921 z m 3.43419,1.64963 v 0.41255 0.41196 h 0.43525 0.4359 v -0.41196 -0.41255 h -0.4359 z m 0.87115,1.23707 v 0.34369 0.3437 l 0.27889,0.26336 0.27827,0.26397 0.37526,-0.21927 0.37463,-0.21926 v -0.3884 -0.38779 h -0.65352 z m -27.591603,0.21141 2.14054,2.02594 2.13993,2.02534 2.22221,0.96283 2.2229,0.96344 0.7869,0.8227 0.78691,0.8233 h 0.50034 0.499723 l 1.71997,1.19661 1.71933,1.1972 0.22275,-0.0628 0.22207,-0.0634 1.52023,0.92116 1.52085,0.92055 -1.32875,0.007 -1.3294,0.007 -0.41355,-0.36183 -0.4142,-0.36181 -2.6141,-1.34399 -2.614103,-1.34398 -1.94015,-1.0631 -1.94077,-1.06251 -2.63389,-2.62816 -2.63452,-2.62877 -0.18061,-0.47599 z m 16.699323,0.6131 v 0.20658 0.20597 h 0.21828 0.21762 v -0.20597 -0.20658 h -0.21762 z m 23.30924,0.36182 -1.52467,0.83296 -1.52533,0.83297 -0.32676,0.0169 -0.32676,0.0175 v -0.36424 -0.36423 l 0.98029,-0.20175 0.98028,-0.20114 0.87181,-0.28451 z m -13.724,0.46329 v 0.37813 0.37752 l 0.54438,0.2084 0.54504,0.20779 0.10848,0.0326 0.10914,0.0326 v -0.61853 -0.61854 h -0.65352 z m 17.53413,2.06158 -0.38038,0.009 -0.37973,0.009 -1.08943,0.79914 -1.08944,0.79915 0.96628,-0.23437 0.96624,-0.23376 0.50289,-0.57444 z m 18.1921,0.41256 h 0.21762 0.21762 v 0.20598 0.20598 h -0.21762 -0.21762 v -0.20598 z m -15.68714,0.27242 -2.28606,0.93867 -2.28606,0.93807 -1.87442,0.78586 -1.87379,0.78585 0.26549,0.40772 0.26612,0.40713 h 0.60249 0.60182 l 0.2387,-0.36545 0.23867,-0.36544 1.45068,-0.25792 1.45063,-0.25732 1.84186,-1.28237 1.84189,-1.28177 -0.2387,-0.22651 z m 15.21616,0.11175 -0.4608,1.25096 -0.46077,1.25096 h -0.82841 -0.82905 v -0.34792 -0.34854 l 0.76269,-0.61974 0.762,-0.61974 0.52716,-0.28329 z m -25.67002,0.0278 v 0.41256 0.41255 h 0.43525 0.4359 v -0.41255 -0.41256 h -0.4359 z m 31.3692,0.27544 0.29038,0.27483 0.29038,0.27484 h -0.58076 -0.5814 l 0.29099,-0.27484 z m -66.310403,0.21806 1.2745,1.71184 1.2745,1.71244 2.2886,4.25545 2.28926,4.25544 -0.20488,0.50618 -0.2055,0.50619 -5.70173,2.14494 -5.70238,2.14554 h -0.37782 -0.37654 l -0.67267,-0.72183 -0.67204,-0.72122 -1.11367,-2.06218 -1.11367,-2.06158 -0.846264,-2.06158 -0.846902,-2.06218 -0.02103,-0.20598 -0.02109,-0.20598 -0.280811,-0.69162 -0.28017,-0.69162 0.143595,-0.93385 0.142957,-0.93323 4.357045,-1.59285 4.35704,-1.59285 1.15451,-0.34974 z m 55.854013,0.60645 0.29038,0.27484 0.29038,0.27483 h -0.58076 -0.58142 l 0.29101,-0.27483 z m -6.97115,0.13712 v 0.20658 0.20597 h 0.21762 0.21828 v -0.20597 -0.20658 h -0.21828 z m -13.50641,0.41255 v 0.41256 0.41196 h 0.65352 0.65353 v -0.41196 -0.41256 h -0.65353 z m 29.45268,3.71121 0.41354,0.37028 0.4142,0.37027 1.74229,0.88914 1.74297,0.88854 1.49915,-0.21503 1.49849,-0.21504 0.89731,-0.87102 0.89734,-0.87042 -3.15849,0.21805 -3.15849,0.21866 v -0.39141 -0.39202 h -1.39449 z m -89.236093,1.6158 3.859876,0.1202 3.859877,0.1196 0.58779,2.06158 0.587791,2.06218 0.601189,3.28657 0.601191,3.28657 -0.317825,0.28511 -0.317828,0.2845 -3.274005,0.28208 -3.274642,0.28269 -1.260459,-4.47229 -1.260459,-4.47229 -0.195929,-1.56325 z m 73.725723,0.72062 v 0.55027 0.54968 l 0.29038,-0.27484 0.29036,-0.27484 -0.29036,-0.27483 z m -10.23879,3.02441 h 0.044 0.044 l 1.36001,0.4488 1.36069,0.4488 0.94199,1.44244 0.94199,1.44305 0.80033,0.70552 0.79966,0.70551 1.08942,1.93896 1.08943,1.93836 -0.097,-0.0356 -0.0964,-0.0356 -1.74295,-1.12895 -1.74295,-1.12894 -2.17819,-0.86559 -2.17822,-0.86498 -0.21827,-2.50615 z m -8.49581,0.86377 2.17819,2.06158 2.17885,2.06219 v 0.18665 0.18604 h -0.6031 -0.60248 l -1.57572,-1.65023 -1.57574,-1.65083 v -0.5974 z m 19.50554,8.62987 1.36639,0.45122 1.36639,0.45061 0.42319,0.7484 0.42312,0.7484 0.45119,3.01415 0.45188,3.01415 -0.26487,1.14223 -0.26485,1.14224 h -0.3542 -0.35356 l -0.31464,-1.13378 -0.31466,-1.13378 -0.19912,-1.44365 -0.19913,-1.44305 -1.49402,-2.09177 -1.49405,-2.09178 v -0.46149 -0.46088 l 0.38547,-0.22531 z m -35.19012,1.38204 v 0.25792 z m 17.86277,0.53276 -0.22082,0.209 -0.22079,0.20899 0.27568,1.30291 0.27507,1.30291 h 0.4161 0.41548 l -0.30314,-1.34036 -0.30314,-1.33975 -0.16723,-0.17215 z m -37.422543,1.78674 1.32492,2.68012 1.32555,2.68071 h 0.41994 0.42058 l -0.26868,0.41135 -0.26869,0.41196 0.67842,0.91693 0.67905,0.91753 v 0.42585 0.42644 l -1.73593,0.51284 -1.73592,0.51282 h -0.78308 -0.78244 l -2.94916,-2.34547 -2.948513,-2.34609 0.130194,-1.26243 0.130193,-1.26244 2.614096,-1.30654 2.6141,-1.30714 0.568,-0.0332 z m 20.767263,4.90479 1.0141,1.56808 1.01349,1.56808 0.54249,0.52732 0.54246,0.52733 -1.62297,0.59498 -0.10338,-0.41256 -0.10404,-0.41255 -0.82008,-1.81091 -0.82011,-1.8109 0.17933,-0.16914 z m 5.70301,1.61278 -0.005,0.005 c 0.008,0.004 0.0232,0.008 0.0301,0.0121 0.007,-1e-5 0.01,5.3e-4 0.016,5.3e-4 -0.018,-0.01 -0.031,-0.0154 -0.0408,-0.0175 z m 13.13112,0.49229 h 0.21763 0.21762 v 0.20658 0.20597 h -0.21762 -0.21763 v -0.20597 z m -28.769733,1.91117 c -114.794981,-172.367006 -114.794981,-172.367006 0,0 z m 50.890683,0.57201 -0.36761,0.21504 -0.36698,0.21504 0.23487,0.57926 0.23485,0.57927 0.62862,-0.2283 0.62865,-0.22833 -0.49654,-0.566 z" />
  </g>
</svg>
